<svg width="728.67" height="446.22" xmlns="http://www.w3.org/2000/svg" xmlns:xlink="http://www.w3.org/1999/xlink">
 <defs>
  <linearGradient y2="0" x2="0.500036" y1="1" x1="0.500036" id="d011afd7-26ae-4e21-bfb4-bf8e8278f380">
   <stop stop-opacity="0.25" stop-color="gray" offset="0"/>
   <stop stop-opacity="0.12" stop-color="gray" offset="0.54"/>
   <stop stop-opacity="0.1" stop-color="gray" offset="1"/>
  </linearGradient>
  <linearGradient xlink:href="#d011afd7-26ae-4e21-bfb4-bf8e8278f380" y2="75.89" x2="517.02" y1="824.11" x1="517.02" id="b1272ad6-7fba-4513-8921-9c5943220b72"/>
  <linearGradient xlink:href="#d011afd7-26ae-4e21-bfb4-bf8e8278f380" y2="484.08" x2="728.6" y1="487.08" x1="728.6" id="44499e99-1e42-4717-8565-691e3cc41d41"/>
  <linearGradient xlink:href="#d011afd7-26ae-4e21-bfb4-bf8e8278f380" y2="183.08" x2="653.39" y1="341.18" x1="653.39" id="a8bd5eea-1591-45ad-a86c-0410ca3890b3"/>
 </defs>
 <title>hello</title>
 <g>
  <title>background</title>
  <rect fill="none" id="canvas_background" height="448.22" width="730.67" y="-1" x="-1"/>
 </g>
 <g>
  <title>Layer 1</title>
  <g id="svg_1" opacity="0.7">
   <path id="svg_2" fill="url(#d011afd7-26ae-4e21-bfb4-bf8e8278f380)" d="m657.830834,282.81001l0,-10.9l-54.47,0l0,50.39a10.62,10.62 0 0 0 10.62,10.62l33.23,0a10.62,10.62 0 0 0 10.62,-10.62l0,-11.19a14.16,14.16 0 1 0 0,-28.33l0,0.03zm0,22.85l0,-17.41a8.72,8.72 0 1 1 0,17.43l0,-0.02z"/>
  </g>
  <path id="svg_3" fill="#6c63ff" d="m656.120834,284.51001a12.93,12.93 0 1 0 12.93,12.93a12.93,12.93 0 0 0 -12.93,-12.93zm0,20.89a8,8 0 1 1 8,-8a8,8 0 0 1 -8,8z"/>
  <path id="svg_4" opacity="0.1" d="m656.120834,284.51001a12.93,12.93 0 1 0 12.93,12.93a12.93,12.93 0 0 0 -12.93,-12.93zm0,20.89a8,8 0 1 1 8,-8a8,8 0 0 1 -8,8z"/>
  <path id="svg_5" fill="#6c63ff" d="m606.340839,274.560009l49.74,0a0,0 0 0 1 0,0l0,46a9.75,9.75 0 0 1 -9.75,9.75l-30.24,0a9.75,9.75 0 0 1 -9.75,-9.75l0,-46a0,0 0 0 1 0,0z"/>
  <path id="svg_6" opacity="0.1" d="m647.120834,274.56001l0,46a9.7,9.7 0 0 1 -9.7,9.7l5,0a9.7,9.7 0 0 0 9.7,-9.7l0,-46l-5,0z"/>
  <path id="svg_7" fill="#eee" d="m616.120834,237.48001a2.9,2.9 0 0 0 -2.2,1.12c-0.65,1.18 0.53,2.52 1.61,3.33c2,1.5 4.09,3 5.45,5.07s1.78,5 0.3,7c-1.93,2.62 -6.55,3.19 -7,6.41c-0.29,2.07 1.5,3.84 3.32,4.88c4.48,2.57 10.26,3.25 13.5,7.27c1.34,-2.76 4.35,-4.36 7.34,-5s6.1,-0.63 9.14,-1.09a3.16,3.16 0 0 0 2.54,-1.36c0.85,-1.72 -1.57,-3.79 -0.73,-5.51c0.64,-1.32 2.5,-1.21 3.86,-1.74c2.22,-0.86 3.13,-3.71 2.5,-6s-2.41,-4.09 -4.28,-5.56c-5,-4 -11.1,-6.29 -17.23,-8c-2.85,-0.78 -6.2,-2 -9.16,-2.12s-6.1,0.82 -8.96,1.3z"/>
  <line id="svg_8" stroke-width="8" stroke-miterlimit="10" stroke="#e0e0e0" fill="none" y2="666.020009" x2="163.060839" y1="342.020009" x1="267.060839"/>
  <g id="svg_9" opacity="0.7">
   <path id="svg_10" fill="url(#b1272ad6-7fba-4513-8921-9c5943220b72)" d="m347.640834,702.51001c-12.79,0.74 -24.19,11.46 -24.19,11.46l-5.51,-13.67l-0.45,0.15c2.69,-11.78 57.47,-254.72 2.63,-275.66c-42.13,-16.09 -86.82,-36 -121.84,-35.26l0,-57.42l49.09,0l0,-2l38.86,0c7.45,-5.32 -3.38,-9 -15.47,-11.27a11.06,11.06 0 0 0 1.3,-1.83l62.24,-111.67s14.32,-23.52 5.11,-34.77s-22.5,28.64 -22.5,28.64l-51.13,73.63s-51.66,-53.81 -84.44,-80.56a57.47,57.47 0 0 0 -12.22,-9.24c-6,-4.05 -10.53,-6.16 -12.77,-5.33l-0.06,0a57.29,57.29 0 0 0 -15.28,-2.08l-4.09,0l0,-8.39a65.61,65.61 0 0 0 40.53,-38.4a73.7,73.7 0 0 0 5.84,-64.17a4.26,4.26 0 0 0 1.72,-0.6c1.85,-1.19 2,-3.8 1.86,-6a45.56,45.56 0 0 0 -23.12,-35.62c-5.18,-2.83 -11.12,-4.79 -14.94,-9.29c-3.28,-3.87 -4.66,-9.28 -8.64,-12.44c-4.72,-3.75 -11.54,-3.11 -17.33,-1.43a63.06,63.06 0 0 0 -18.09,8.54c-6.26,4.29 -11.92,9.8 -19.13,12.18c-5.12,1.69 -10.68,1.65 -15.84,3.24a26.6,26.6 0 0 0 -17.12,16.69a34.75,34.75 0 0 0 -1.46,13a73.22,73.22 0 0 0 -7.35,16.71l-1.16,0.63l1.12,-0.5a73.62,73.62 0 0 0 20.74,75.09a65.55,65.55 0 0 0 31.45,22.32l0,10.15a77.33,77.33 0 0 0 -25.1,10.28l0,0s-0.65,0.4 -1.77,1.16l-0.34,0.23c-7.57,5.14 -32.93,23.9 -32.07,44.18q0,1.17 0,2.35a78,78 0 0 0 -2.09,17.88l0,147.23a72.28,72.28 0 0 0 15.49,44.83c-21.34,4.78 -34.94,12 -34.94,20.11a6.55,6.55 0 0 1 0,2c0,14.4 43,26.08 96.13,26.08c6.42,0 12.69,-0.17 18.76,-0.5l60,48.56l-96.1,154.48s-31.7,24.54 -7.16,32.73s74.66,14.32 74.66,14.32s8.18,-14.32 -3.07,-20.45s-26.59,-3.07 -26.59,-3.07l2,-12.27s166.7,-143.18 131.93,-192.26c-6.65,-9.39 -13.3,-19.08 -20,-28.62l26.24,2.39l6,224.76l0.75,-0.24c-1.5,4.42 -12.1,37.74 11.4,32.1c25.16,-6 70.93,-27.33 70.93,-27.33s-0.63,-16.5 -13.42,-15.76zm-100.27,-386.74l-49.09,-14.25l0,-42l53.35,56.59c-2.62,-0.21 -4.26,-0.34 -4.26,-0.34z"/>
  </g>
  <circle id="svg_11" r="72" cy="97.020009" cx="116.060839"/>
  <path id="svg_12" fill="#6c63ff" d="m198.060834,262.02001l54.95,58.33a10.73,10.73 0 0 0 17.19,-2.13l60.86,-109.19l-17,-6l-50,72s-93.87,-97.84 -107,-93s41,79.99 41,79.99z"/>
  <line id="svg_13" stroke-width="5" stroke-miterlimit="10" stroke="#bdbdbd" fill="none" y2="674.020009" x2="12.060839" y1="464.020009" x1="93.060839"/>
  <line id="svg_14" stroke-width="5" stroke-miterlimit="10" stroke="#bdbdbd" fill="none" y2="674.020009" x2="214.060839" y1="464.020009" x1="133.060839"/>
  <ellipse id="svg_15" fill="#b84733" ry="25.5" rx="94" cy="465.520009" cx="113.060839"/>
  <ellipse id="svg_16" fill="#f55f44" ry="25.5" rx="94" cy="463.520009" cx="113.060839"/>
  <line id="svg_17" stroke-width="5" stroke-miterlimit="10" stroke="#bdbdbd" fill="none" y2="537.480009" x2="162.190839" y1="510.150009" x1="73.500839"/>
  <line id="svg_18" stroke-width="5" stroke-miterlimit="10" stroke="#bdbdbd" fill="none" y2="537.480009" x2="63.920839" y1="510.150009" x1="152.610839"/>
  <path id="svg_19" fill="#6c63ff" d="m114.150839,180.000009l27.91,0a56,56 0 0 1 56,56l0,148a0,0 0 0 1 0,0l-160,0a0,0 0 0 1 0,0l0,-127.89a76.09,76.09 0 0 1 76.09,-76.11z"/>
  <path id="svg_20" fill="#39447a" d="m38.060839,384.000009l160,0a0,0 0 0 1 0,0l0,87a0,0 0 0 1 0,0l-89,0a71,71 0 0 1 -71,-71l0,-16a0,0 0 0 1 0,0z"/>
  <path id="svg_21" opacity="0.05" d="m40.220834,240.06001l97.84,93l108,0l0,-14l-93,-27l-79.55,-98.24s-36.13,22.29 -33.29,46.24z"/>
  <path id="svg_22" fill="#6c63ff" d="m40.220834,238.06001l97.84,93l108,0l0,-14l-93,-27l-79.55,-98.24s-36.13,22.29 -33.29,46.24z"/>
  <path id="svg_23" fill="#fda57d" d="m246.060834,317.02001s52,4 38,14l-38,0l0,-14z"/>
  <path id="svg_24" fill="#fda57d" d="m314.060834,203.02001s13,-39 22,-28s-5,34 -5,34l-17,-6z"/>
  <polygon id="svg_25" opacity="0.05" points="38.06083679199219,384.01999831199646 38.06083679199219,388.68000197410583 198.0608367919922,389.01999831199646 198.0608367919922,384.01999831199646 38.06083679199219,384.01999831199646 "/>
  <path id="svg_26" fill="#39447a" d="m162.520834,476.56001l107.6,9.81l5.86,219.74l38.53,-12.54s57.63,-249 2.68,-270s-114.35,-48.63 -149.81,-26.1s-4.86,79.09 -4.86,79.09z"/>
  <path id="svg_27" opacity="0.1" d="m169.060834,409.02001s59,30 67,64"/>
  <path id="svg_28" fill="#39447a" d="m106.060834,470.02001l84,68l-94,151l39,11s163,-140 129,-188s-68,-104 -110,-105s-48,63 -48,63z"/>
  <polygon id="svg_29" opacity="0.05" points="238.0608367919922,249.02001357078552 259.0608367919922,285.01999831199646 264.0608367919922,275.01999831199646 238.0608367919922,249.02001357078552 "/>
  <path id="svg_30" fill="#333" d="m278.059995,691.020001s-31,24 -7,32s73,14 73,14s8,-14 -3,-20s-26,-3 -26,-3l2,-12l-39,-11z"/>
  <path id="svg_31" fill="#333" d="m458.879995,707.430001s-13.62,37.76 11,31.86s69.36,-26.73 69.36,-26.73s-0.61,-16.11 -13.12,-15.39s-23.65,11.2 -23.65,11.2l-5.39,-13.37l-38.2,12.43z"/>
  <rect id="svg_32" fill="#fda57d" ry="20" rx="20" height="60" width="40" y="145.020009" x="98.060839"/>
  <path id="svg_33" opacity="0.05" d="m118.060834,147.02001a20,20 0 0 0 -20,20l0,6.8a64,64 0 0 0 40,0l0,-6.8a20,20 0 0 0 -20,-20z"/>
  <circle id="svg_34" fill="#fda57d" r="64" cy="111.020009" cx="118.060839"/>
  <path id="svg_35" opacity="0.05" d="m54.060834,108.11001s16,4.12 25,-14.06s16,-28.1 53,-17.36s44.44,12.06 46.22,1.9c1.22,-6.94 -11.94,-23.81 -20.4,-33.79c-4.12,-4.87 -10.85,-7.78 -18,-7.78l-41.82,0l-25,11.57l-19,16.53l-4,22.32l4,20.67z"/>
  <path id="svg_36" d="m54.060834,106.11001s16,4.12 25,-14.06s16,-28.1 53,-17.36s44.44,12.06 46.22,1.9c1.22,-6.94 -11.94,-23.81 -20.4,-33.79c-4.12,-4.87 -10.85,-7.78 -18,-7.78l-41.82,0l-25,11.57l-19,16.53l-4,22.32l4,20.67z"/>
  <ellipse id="svg_37" fill="#fda57d" ry="13" rx="6.5" cy="106.020009" cx="60.560839"/>
  <path id="svg_38" d="m55.910834,72.57001c-1.48,-8.37 -2.94,-17.16 -0.24,-25.22a26,26 0 0 1 16.74,-16.32c5,-1.55 10.48,-1.52 15.49,-3.17c7.05,-2.32 12.58,-7.71 18.71,-11.91a61.66,61.66 0 0 1 17.69,-8.35c5.66,-1.64 12.33,-2.27 16.95,1.4c3.88,3.09 5.23,8.38 8.44,12.16c3.74,4.4 9.54,6.31 14.61,9.08a44.54,44.54 0 0 1 22.59,34.87c0.17,2.15 0,4.7 -1.82,5.86a6.48,6.48 0 0 1 -3.65,0.67c-25.58,-0.37 -51.19,-0.73 -76.66,-3.08c-7.92,-0.73 -15.85,-1.65 -23.8,-1.35a77.85,77.85 0 0 0 -35,9.89"/>
  <rect id="svg_43" fill="#6c63ff" ry="32.78" rx="32.78" height="65.57" width="154.09" y="645.27" x="5.85"/>
  <path id="svg_48" fill="url(#44499e99-1e42-4717-8565-691e3cc41d41)" d="m399.720834,409.19001a1.5,1.5 0 0 0 0,-3a1.5,1.5 0 0 0 0,3z"/>
  <line id="svg_49" stroke-width="8" stroke-miterlimit="10" stroke="#e0e0e0" fill="none" y2="712.110009" x2="723.820839" y1="342.020009" x1="619.820839"/>
  <rect id="svg_50" fill="#e0e0e0" height="21.88" width="561.61" y="331.180009" x="162.630839"/>
  <rect id="svg_51" fill="#535461" ry="6.5" rx="6.5" height="13" width="92" y="326.020009" x="301.060839"/>
  <g id="svg_52" opacity="0.7">
   <rect id="svg_53" fill="url(#a8bd5eea-1591-45ad-a86c-0410ca3890b3)" ry="28.22" rx="28.22" height="158.1" width="228.66" y="181.080009" x="357.060839"/>
  </g>
  <rect id="svg_54" fill="#3e3f49" ry="26.84" rx="26.84" height="155.18" width="216.61" y="183.990009" x="361.130839"/>
  <rect id="svg_55" fill="#535461" ry="26.84" rx="26.84" height="155.18" width="216.61" y="183.990009" x="364.130839"/>
  <circle id="svg_56" fill="#e0e0e0" r="7" cy="260.520009" cx="482.560839"/>
 </g>
</svg>