<?xml version="1.0" encoding="UTF-8"?>
<svg width="181px" height="236px" viewBox="0 0 181 236" version="1.1" xmlns="http://www.w3.org/2000/svg" xmlns:xlink="http://www.w3.org/1999/xlink">
    <!-- Generator: Sketch 53.2 (72643) - https://sketchapp.com -->
    <title>Shape</title>
    <desc>Created with Sketch.</desc>
    <g id="Page-1" stroke="none" stroke-width="1" fill="none" fill-rule="evenodd">
        <g id="undraw_security_o890" transform="translate(-501.000000, -206.000000)" fill="#6C63FF" fill-rule="nonzero">
            <path d="M659.03,287.85 L645.48,287.85 L645.48,261.53 C645.48,231.83 621.8,207.14 592.1,206.69 C577.634965,206.538024 563.707656,212.166285 553.409535,222.32547 C543.111414,232.484656 537.294507,246.334235 537.25,260.8 L537.25,287.85 L523.73,287.85 C511.291933,287.888432 501.218432,297.961933 501.18,310.4 L501.18,418.62 C501.218432,431.058067 511.291933,441.131568 523.73,441.17 L659.03,441.17 C671.466434,441.131541 681.537057,431.05645 681.57,418.62 L681.57,310.4 C681.537057,297.96355 671.466434,287.888459 659.03,287.85 L659.03,287.85 Z M599.28,358.2 L599.28,396.96 C599.307128,401.218894 596.027645,404.769481 591.78,405.08 C589.620531,405.181123 587.51377,404.393991 585.949652,402.901656 C584.385534,401.409321 583.500367,399.341835 583.5,397.18 L583.5,358.18 C575.966768,354.506189 571.966039,346.119169 573.851254,337.952625 C575.736468,329.786081 583.008683,324.001375 591.39,324.001375 C599.771317,324.001375 607.043532,329.786081 608.928746,337.952625 C610.813961,346.119169 606.813232,354.506189 599.28,358.18 L599.28,358.2 Z M629.72,287.85 L553.03,287.85 L553.03,260.8 C553.03,239.630926 570.190926,222.47 591.36,222.47 C612.529074,222.47 629.69,239.630926 629.69,260.8 L629.72,287.85 Z" id="Shape"></path>
        </g>
    </g>
</svg>