<svg width="1022.9999999999999" height="1022.9999999999999" xmlns="http://www.w3.org/2000/svg">
 <!-- Generator: Sketch 53.2 (72643) - https://sketchapp.com -->

 <title>undraw_love_xfcv</title>
 <desc>Created with Sketch.</desc>
 <g>
  <title>background</title>
  <rect x="-1" y="-1" width="1025" height="1025" id="canvas_background" fill="none"/>
 </g>
 <g>
  <title>Layer 1</title>
  <g id="Page-1" fill="none" fill-rule="evenodd">
   <path d="m842.169994,1078.88017c-37.89305,17.96476 -79.31418,27.25676 -121.25,27.2c-6.03,0 -12.01667,-0.18667 -17.96,-0.56c-129.56624,-8.11999 -259.51376,-8.11999 -389.08,0c-5.94,0.37 -11.92667,0.55667 -17.96,0.56c-48.66718,0.07112 -96.52478,-12.45137 -138.92,-36.35c64.13,-27.78 189.39,-46.65 333.42,-46.65c159.34006,0.00001 295.71005,23.08998 351.75,55.8z" id="Path" fill="#2F2E41" fill-rule="nonzero" stroke="null"/>
   <path stroke="null" d="m651.900217,292.284405c105.294845,-16.011119 210.70836,28.307327 276.496772,116.245856c65.788412,87.93876 81.946515,206.123512 42.382173,309.995871c-39.564123,103.872359 -128.833794,177.634846 -234.151671,193.477315l-589.214264,89.113771l-84.727055,-619.719042c-23.396807,-171.130639 89.536406,-329.808186 252.243385,-354.416291c162.706979,-24.608106 313.573852,94.171881 336.970659,265.30252l0,0z" id="Path" fill="#033FFF" fill-rule="nonzero"/>
   <path d="m408.919994,1024.58018c0,0 23,3 27,3c4,0 15,4 9,9c-6,5 -44,12 -49,9c-5,-3 -12,-12 -7,-13c5,-1 20,-8 20,-8z" id="Path" fill="#3F3D56" fill-rule="nonzero" stroke="null"/>
   <polygon id="Path" fill="#FBBEBE" fill-rule="nonzero" points="367.92041015625,1061.5800170898438 359.92041015625,1075.5800170898438 369.92041015625,1080.5800170898438 388.92041015625,1084.5800170898438 398.92041015625,1071.5800170898438 394.92041015625,1056.5800170898438 " stroke="null"/>
   <path d="m386.919994,1079.58018l12,-12c0,0 32,16 37,17c5,1 16,9 5,12c-11,3 -52,1 -62,0c-10,-1 -30,-2 -27,-8c3,-6 8,-27 8,-27c0,0 2.76378,-3.82086 4.38189,1.08957c1.61811,4.91043 2.61811,11.91043 6.61811,11.91043c4,0 16,5 16,5z" id="Path" fill="#3F3D56" fill-rule="nonzero" stroke="null"/>
   <line stroke-linecap="null" stroke-linejoin="null" id="svg_2" y2="368.166721" x2="396.500094" y1="68.166834" x1="-46.833071" stroke-width="null" fill="none"/>
  </g>
 </g>
</svg>