<svg width="182.78" height="188" xmlns="http://www.w3.org/2000/svg">
 <title>treasure</title>

 <g>
  <title>background</title>
  <rect x="-1" y="-1" width="184.78" height="190" id="canvas_background" fill="none"/>
 </g>
 <g>
  <title>Layer 1</title>
  <path d="m65.19982,54.17983a4.51,4.51 0 0 1 0.31,-2.14c0.81,-1.44 2.93,-1.05 4.53,-0.64c6.44,1.62 13.22,0.15 19.84,0.53s14.09,3.69 15.42,10.19a48.25,48.25 0 0 0 12.23,-12.57c1.84,-2.75 3.44,-5.9 3.19,-9.2c-0.36,-4.76 -4.35,-8.32 -8.05,-11.34l-11,-9a16.51,16.51 0 0 0 -4.94,-3.14c-2.54,-0.87 -5.32,-0.46 -8,-0.46c-8,0 -16.57,-3.64 -23.71,0c-3,1.53 -5.22,4.15 -7.38,6.71l-9.84,11.65a6.13,6.13 0 0 0 -1.57,2.67c-0.28,1.42 0.45,2.82 0.7,4.25c0.47,2.6 -0.66,5.37 0.21,7.87c1.43,4.15 6.46,4.74 9.54,7.11c1.15,0.89 2.95,3.89 4.31,3.86c2.44,-0.03 4.14,-4.44 4.21,-6.35z" fill="#bf5f00" id="svg_38"/>
  <path d="m66.81982,81.99983c-0.11,3.24 -2,6.12 -3.82,8.81c-2.43,3.58 -5,7.3 -8.84,9.3a84.94,84.94 0 0 0 62.78,6.62c3.37,-1 7.35,-3.08 7.15,-6.59c-4,-1.09 -8.14,-2.22 -11.54,-4.63c-4.06,-2.88 -6.74,-7.36 -8.47,-12s-2.61,-9.6 -3.82,-14.43a2.72,2.72 0 0 0 -0.62,-1.34a2.76,2.76 0 0 0 -1.9,-0.5l-13.32,-0.24c-5.47,0 -11.41,-0.13 -16.49,2.19c-6.32,2.9 -0.93,7.43 -1.11,12.81z" fill="#ffc0c6" id="svg_39"/>
  <path d="m66.81982,81.99983c-0.11,3.24 -2,6.12 -3.82,8.81c-2.43,3.58 -5,7.3 -8.84,9.3a84.94,84.94 0 0 0 62.78,6.62c3.37,-1 7.35,-3.08 7.15,-6.59c-4,-1.09 -8.14,-2.22 -11.54,-4.63c-4.06,-2.88 -6.74,-7.36 -8.47,-12s-2.61,-9.6 -3.82,-14.43a2.72,2.72 0 0 0 -0.62,-1.34a2.76,2.76 0 0 0 -1.9,-0.5l-13.32,-0.24c-5.47,0 -11.41,-0.13 -16.49,2.19c-6.32,2.9 -0.93,7.43 -1.11,12.81z" opacity="0.1" id="svg_40"/>
  <path d="m55.22982,538.23983c-3.28,5 -7.57,9.23 -11.17,14s-6.61,10.33 -6.65,16.3a2.58,2.58 0 0 0 0.69,2.1a2.7,2.7 0 0 0 1.37,0.43l13.9,1.78a23.29,23.29 0 0 0 6.4,0.22a22.7,22.7 0 0 0 6.56,-2.39a9.05,9.05 0 0 0 3.94,-3c0.67,-1.1 0.85,-2.45 1.49,-3.57c1.93,-3.39 6.79,-3.24 10.65,-2.65c1.11,-10.31 -1.74,-20.59 -4.57,-30.57a4,4 0 0 0 -0.77,-1.68a4,4 0 0 0 -1.81,-1c-3.33,-1.09 -11.38,-5.36 -14.18,-3.36c-2.05,1.48 -4.19,10.74 -5.85,13.39z" fill="#575a88" id="svg_41"/>
  <path d="m122.24982,558.56983c2.67,-1.25 5.52,-2.86 8.4,-2.2c4.06,0.91 5.87,5.71 9.32,8c2.12,1.43 4.74,1.85 7.27,2.18a169.42,169.42 0 0 0 23.5,1.39c2.51,0 5.67,-0.6 6.28,-3s-1.7,-4.31 -3.75,-5.56a110,110 0 0 0 -13.88,-7.21a27.83,27.83 0 0 1 -6.62,-3.52c-3.43,-2.77 -5.1,-7.11 -6.63,-11.24c-1.23,-3.32 -2.36,-10.49 -4.88,-13c-2.76,-2.71 -6.47,-0.91 -9.93,-0.15c-5.38,1.18 -11.68,2 -15.14,6.83c-5.06,7.07 -8.95,34.43 6.06,27.48z" fill="#575a88" id="svg_42"/>
  <path d="m42.73982,239.45983a101.94,101.94 0 0 0 -7.46,35.54c-0.24,9.11 0.74,18.19 1.73,27.25q2.37,22 4.76,44a124.13,124.13 0 0 0 2.87,18.11c1.73,6.65 4.54,13 6.55,19.54c6.22,20.38 4.45,42.36 0.34,63.27a31.61,31.61 0 0 0 -0.86,7c0.12,3.53 1.48,6.89 2.36,10.31c5.38,20.85 -7,44 1.08,64a3.17,3.17 0 0 0 1.27,1.75a3.22,3.22 0 0 0 2.52,-0.11a34.09,34.09 0 0 0 6.59,-3.12a40.21,40.21 0 0 0 16.34,11.83c4.74,-1.17 5.63,-6.93 7.18,-11.56a79,79 0 0 0 2.88,-10.07a80.15,80.15 0 0 0 1.05,-12.68l4.1,-144.35l-0.3,44.05a52,52 0 0 0 0.67,10.66c0.6,2.93 1.7,5.74 2.33,8.67c0.89,4.19 0.78,8.53 0.74,12.82a376.79,376.79 0 0 0 6.95,75.82c1.6,8.18 3.52,16.44 7.61,23.69a2.61,2.61 0 0 0 1.49,1.46c0.87,0.19 1.67,-0.5 2.33,-1.11a25.49,25.49 0 0 1 29.27,-3.18c-0.88,-4.24 3.16,-9.17 0.27,-12.39c-0.83,-0.93 -2.07,-1.38 -3,-2.19c-1.84,-1.57 -2.28,-4.21 -2.54,-6.62a153.34,153.34 0 0 1 0,-32.27c1.41,-13.41 4.58,-26.93 2.24,-40.2c-1.7,-9.63 -6.28,-19 -5.37,-28.69c0.6,-6.5 3.62,-12.49 5.7,-18.68c9.08,-27.06 0,-57.22 6.57,-85c1.51,-6.38 3.79,-13.28 1.05,-19.23l4.17,-1.27l-8.66,-19.77c-1.84,-4.21 -3.76,-8.54 -7,-11.78c-5.44,-5.41 -13.57,-6.86 -21.16,-8l-61.74,-9.63c-5.47,-0.89 -12.85,-2.95 -14.92,2.13z" fill="#3c354c" id="svg_43"/>
  <circle cx="81.609817" cy="55.429832" r="26.43" fill="#ffc0c6" id="svg_44"/>
  <path d="m67.19982,86.89983a6.14,6.14 0 0 0 -4.26,-0.75a7.28,7.28 0 0 0 -2,1.09l-12.5,8.76a19.33,19.33 0 0 0 -4.73,4.14c-2.14,2.91 -2.48,6.78 -2.2,10.38c0.62,8.12 3.9,15.78 5.68,23.72s1.78,17 -3.34,23.36a12.38,12.38 0 0 0 -2.18,3.09a9,9 0 0 0 -0.41,3a81.82,81.82 0 0 0 0.24,11.4c0.56,4.89 2,9.64 2.78,14.49c1.37,8.26 1,16.73 2.06,25a4,4 0 0 0 4,4.34a117.77,117.77 0 0 0 18.67,1.23c7.23,0 14.45,-0.4 21.67,-0.78l32.86,-1.73a3.24,3.24 0 0 0 3.65,-3.35c2.88,-13.82 5.78,-27.89 4.42,-41.93c-0.88,-9.07 -3.52,-17.86 -6,-26.62c-2,-7.1 -3.92,-14.55 -2.42,-21.78c1,-4.77 3.43,-9.18 4.06,-14a16.51,16.51 0 0 0 -4.52,-13.9c-3.68,-3.53 -9.05,-4.87 -12.72,-8.41a28.93,28.93 0 0 0 -3.28,-3.18a4.1,4.1 0 0 0 -4.31,-0.5a5.55,5.55 0 0 0 -1.64,1.83c-3.2,4.86 -8,12.87 -14.75,11.61c-7.3,-1.31 -12.4,-7.41 -18.83,-10.51z" fill="#6c63ff" id="svg_45"/>
  <path d="m133.23982,265.57983c-2.34,1.75 -4.08,4.86 -3,7.57a15.27,15.27 0 0 0 9.36,-1.3c1.87,-0.91 4.2,-2.19 5.82,-0.87a4.93,4.93 0 0 1 1.19,1.8a60.82,60.82 0 0 0 6.34,10.53c1.78,-0.84 3.65,-1.76 4.72,-3.41a9.87,9.87 0 0 0 1.23,-3.65a97,97 0 0 0 1.39,-9.73c0.21,-2.37 0.25,-5 -1.37,-6.76c-6.95,-7.5 -19.91,1.51 -25.68,5.82z" fill="#ffc0c6" id="svg_46"/>
  <path d="m63.54982,44.25983a4.48,4.48 0 0 1 0.31,-2.13c0.81,-1.44 2.93,-1 4.53,-0.65c6.44,1.63 13.22,0.16 19.84,0.54s14.09,3.69 15.42,10.19a48.41,48.41 0 0 0 12.24,-12.57c1.84,-2.75 3.44,-5.9 3.19,-9.2c-0.36,-4.76 -4.35,-8.32 -8.05,-11.34l-11,-9a16.48,16.48 0 0 0 -4.94,-3.13c-2.54,-0.87 -5.32,-0.46 -8,-0.46c-8,0 -16.57,-3.64 -23.71,0c-3,1.54 -5.22,4.16 -7.39,6.72l-9.83,11.65a6.21,6.21 0 0 0 -1.58,2.66c-0.28,1.42 0.45,2.83 0.71,4.25c0.46,2.6 -0.66,5.38 0.2,7.88c1.43,4.15 6.47,4.73 9.55,7.11c1.15,0.89 2.94,3.89 4.31,3.85c2.43,-0.04 4.13,-4.45 4.2,-6.37z" fill="#bf5f00" id="svg_47"/>
  <path d="m128.81982,97.86983a20.5,20.5 0 0 1 16.24,3c7.56,5.18 10.67,14.64 13.3,23.42l5.89,19.69c2.58,8.63 5.18,17.34 5.78,26.33c0.55,8.17 -0.57,16.35 -1.69,24.46c-1.55,11.23 2.1,23.54 2.15,34.87c0,13 -0.08,26.79 -6.7,38a6.34,6.34 0 0 0 -4,-4.27a18.65,18.65 0 0 0 -5.95,-1l-17.6,-1.13a54.27,54.27 0 0 0 3.86,-7.93c6.75,-17.34 4.16,-36.72 1.47,-55.12a38,38 0 0 0 -1,-5.2a49.58,49.58 0 0 1 -1.19,-20.15a47,47 0 0 0 0.31,-9.18a10.26,10.26 0 0 0 -0.81,-3.76a11.82,11.82 0 0 0 -1.94,-2.68l-3.56,-4c-0.29,-12.1 -2.19,-24.29 -4.07,-36.25a81.41,81.41 0 0 1 -0.49,-19.1z" fill="#6c63ff" id="svg_48"/>
  <path d="m94.23982,151.29983a84.94,84.94 0 0 1 -31.84,-53.93c-0.58,-3.79 -2.09,-8.74 -5.92,-8.61a7.55,7.55 0 0 0 -3.26,1.14l-13.88,7.44a5.23,5.23 0 0 0 -2.42,2c-0.91,1.78 0.38,3.83 1.49,5.49c7.47,11.3 8,25.65 8.3,39.19c0.09,4 0.12,8.21 -1.81,11.71c-1.57,2.83 -4.3,4.91 -5.74,7.82c-1.35,2.73 -1.41,5.89 -1.45,8.94c-0.28,21.76 -0.56,43.55 0.58,65.29c0.17,3.28 0.43,6.72 2.18,9.5c1.63,2.57 4.32,4.23 6.92,5.8l21.05,12.72c4,2.43 8.16,4.9 12.79,5.68s9.92,-0.54 12.58,-4.41c1.29,-1.88 1.86,-4.17 3.1,-6.08s3.61,-3.46 5.72,-2.61c1.5,0.6 2.32,2.17 3,3.62c1.34,2.77 2.74,5.61 4.93,7.78s5.36,3.63 8.37,3c2.6,-0.57 4.63,-2.54 6.5,-4.42c5.78,-5.79 11.62,-11.66 15.87,-18.67a4.5,4.5 0 0 0 0.9,-2.83a5.7,5.7 0 0 0 -1.55,-2.6c-2.66,-3.26 -3.71,-7.53 -4.5,-11.67c-7.91,-41.6 3.26,-84.84 -2.89,-126.74c-0.7,-4.8 -2.24,-9.21 -5.84,-12.46s-8.08,-5.32 -12.49,-7.34c-1.45,-0.66 -3.11,-1.34 -4.59,-0.74c-2.45,1 -2.46,4.37 -2.28,7a91.71,91.71 0 0 1 -0.8,16.13l-2.15,19.79a38.24,38.24 0 0 1 -1.68,8.9a35.84,35.84 0 0 1 -9.19,14.17z" fill="#575a88" id="svg_49"/>
  <path d="m60.80982,144.99983c3.22,-6.89 -0.08,-14.84 -2.28,-22.12a74.74,74.74 0 0 1 -3.11,-17.8a13,13 0 0 1 0.62,-5.63a5,5 0 0 1 4.28,-3.27a20.53,20.53 0 0 1 3.21,14.62a49.22,49.22 0 0 1 5.66,-1.11a10.59,10.59 0 0 1 11.51,7.31c3.17,10.16 4.25,21 -0.17,30.5a58,58 0 0 1 -4.89,8.05l-9.64,14.08c-0.66,1 -1.47,2 -2.63,2.17s-2.37,-0.88 -3.22,-1.85c-2.93,-3.31 -8.13,-8.13 -7.56,-12.69s6.3,-8.21 8.22,-12.26z" fill="#ffc0c6" id="svg_52"/>
  <path d="m38.52982,102.52983c-9.79,-1.11 -21,1.54 -26.12,10c-2.57,4.27 -3.21,9.39 -3.66,14.35c-0.63,6.95 -1,13.92 -1.35,20.88l-1.89,36.64c-0.23,4.38 -0.45,8.77 -0.53,13.15a29.63,29.63 0 0 0 1.09,10.16c1.21,3.55 3.61,6.55 6,9.47s5.38,5.93 8.89,5.08a9.66,9.66 0 0 0 3.81,-2.35l8,-6.92c5.44,-4.67 10.94,-9.41 15.08,-15.27c2,-2.82 3.64,-5.87 5.66,-8.67c5.94,-8.24 15.08,-14.49 18.21,-24.15c-3,-0.16 -7.36,-1.15 -8.74,-3.81c-0.73,-1.41 -0.83,-3.09 -1.64,-4.44c-1.23,-2.06 -4,-3.18 -4.41,-5.54c-7.86,6.33 -14.44,13.68 -20.72,21.57l2.55,-9.91a6.3,6.3 0 0 1 1.13,-2.57a11.33,11.33 0 0 1 3,-1.89c3.11,-1.88 4.29,-5.77 4.92,-9.35a65.43,65.43 0 0 0 -9.28,-46.43z" fill="#6c63ff" id="svg_53"/>
 </g>
</svg>