<svg width="47" height="47" xmlns="http://www.w3.org/2000/svg">
 <!-- Generator: Sketch 53.2 (72643) - https://sketchapp.com -->

 <title>undraw_love_xfcv</title>
 <desc>Created with Sketch.</desc>
 <g>
  <title>background</title>
  <rect fill="none" id="canvas_background" height="49" width="49" y="-1" x="-1"/>
 </g>
 <g>
  <title>Layer 1</title>
  <g fill-rule="evenodd" fill="none" id="Page-1">
   <path stroke="null" fill-rule="nonzero" fill="#2F2E41" id="Path" d="m164.2476,633.88017c-37.89305,17.96476 -79.31418,27.25676 -121.25,27.2c-6.03,0 -12.01667,-0.18667 -17.96,-0.56c-129.56624,-8.11999 -259.51376,-8.11999 -389.08,0c-5.94,0.37 -11.92667,0.55667 -17.96,0.56c-48.66718,0.07112 -96.52478,-12.45137 -138.92,-36.35c64.13,-27.78 189.39,-46.65 333.42,-46.65c159.34006,0.00001 295.71005,23.08998 351.75,55.8z"/>
   <path stroke="#3F3D56" id="Path" d="m-33.12495,236.1573c-6.59894,-5.68184 -15.84238,-7.14606 -23.87427,-3.78181c-11.87754,5.18011 -17.05037,19.7316 -16.21984,32.66294c0.83053,12.93134 6.21884,25.06152 9.7085,37.54077c4.68719,16.7617 5.9044,34.92858 0.41078,51.44356c-5.49362,16.51498 -18.41986,31.06888 -35.18671,35.73763c-15.5625,4.33341 -32.071,-0.01139 -47.63369,-4.344"/>
   <path stroke="null" fill-rule="nonzero" fill="#033FFF" id="Path" d="m-4.94913,210.31894c0.28213,-4.84137 -2.04104,-9.46525 -6.09378,-12.12866c-4.05275,-2.66341 -9.21885,-2.96137 -13.55094,-0.78157c-4.33208,2.1798 -7.17146,6.50592 -7.44781,11.34763l-1.56259,27.09252l27.09252,1.5626c4.83961,0.27913 9.46051,-2.04484 12.12205,-6.0965c2.66155,-4.05167 2.95938,-9.21547 0.7813,-13.54626c-2.17807,-4.3308 -6.50114,-7.17063 -11.34075,-7.44976l0,0z"/>
   <path stroke="null" fill-rule="nonzero" fill="#033FFF" id="Path" d="m-34.08173,280.86177c0.4315,-7.48139 -5.28357,-13.89606 -12.76497,-14.32755c-7.48139,-0.4315 -13.89605,5.28357 -14.32755,12.76496l-1.5626,27.09252l27.09253,1.5626c7.47833,0.42658 13.88771,-5.2874 14.31901,-12.76546c0.43131,-7.47806 -5.27864,-13.89104 -12.75642,-14.32707l0,0z"/>
   <path stroke="null" fill-rule="nonzero" fill="#033FFF" id="Path" d="m-73.11907,205.29371c-3.71538,-3.11751 -8.81222,-4.01488 -13.36894,-2.35377c-4.55672,1.6611 -7.88032,5.62805 -8.71777,10.40524c-0.83746,4.7772 0.93861,9.63813 4.65859,12.75015l20.80162,17.42812l17.42817,-20.80162c3.11751,-3.71538 4.01487,-8.81222 2.35377,-13.36894c-1.6611,-4.55671 -5.62805,-7.88032 -10.40524,-8.71777c-4.7772,-0.83746 -9.63813,0.93861 -12.75015,4.65859l-0.00005,0z"/>
   <path stroke="#3F3D56" id="Path" d="m88.9216,223.80567c-4.847,-7.23436 -13.36645,-11.1079 -22.00429,-10.00471c-12.82825,1.829 -21.69035,14.47687 -24.33443,27.16222c-2.64408,12.68535 -0.68165,25.81258 -0.64225,38.7705c0.05292,17.40465 -3.61307,35.23938 -13.3074,49.69429c-9.69433,14.45491 -26.03034,25.03972 -43.435,25.07349c-16.15453,0.03136 -30.90917,-8.55392 -44.75552,-16.8755"/>
   <path stroke="null" fill-rule="nonzero" fill="#033FFF" id="Path" d="m122.9621,206.40623c1.5582,-4.5904 0.54909,-9.6634 -2.64721,-13.30804c-3.1963,-3.64464 -8.0942,-5.30723 -12.8487,-4.36147c-4.75451,0.94576 -8.6433,4.35617 -10.2015,8.94657l-8.723,25.69741l25.69741,8.72294c7.09614,2.40879 14.80142,-1.39106 17.2102,-8.48721c2.4088,-7.09614 -1.39106,-14.80141 -8.4872,-17.2102l0,0z"/>
   <path stroke="null" fill-rule="nonzero" fill="#033FFF" id="Path" d="m76.09115,266.64009c1.55821,-4.5904 0.54911,-9.6634 -2.64718,-13.30806c-3.1963,-3.64465 -8.0942,-5.30724 -12.84871,-4.36149c-4.75451,0.94574 -8.64331,4.35615 -10.20152,8.94655l-8.72294,25.69741l25.69741,8.723c7.09614,2.40877 14.8014,-1.39109 17.21018,-8.48724c2.40877,-7.09614 -1.3911,-14.8014 -8.48724,-17.21017z"/>
   <path stroke="null" fill-rule="nonzero" fill="#033FFF" id="Path" d="m58.59379,183.40372c-2.75082,-3.9943 -7.42437,-6.21668 -12.25876,-5.82933c-4.8344,0.38735 -9.09447,3.32553 -11.17419,7.70687c-2.07973,4.38134 -1.66285,9.53957 1.09347,13.53007l15.4076,22.33948l22.33949,-15.4076c6.16888,-4.25469 7.72063,-12.70467 3.46594,-18.87355c-4.25469,-6.16888 -12.70467,-7.72063 -18.87355,-3.46594l0,0z"/>
   <path stroke="null" fill-rule="nonzero" fill="#033FFF" id="Path" d="m20.687145,7.519544c2.379229,-4.547943 6.918111,-7.4345 11.906883,-7.572349c4.988772,-0.137848 9.669526,2.493962 12.279058,6.904057c2.609543,4.410095 2.751415,9.928463 0.372176,14.476406l-13.319147,25.459704l-24.558117,-13.808125c-4.38689,-2.466587 -7.171227,-7.172091 -7.304194,-12.344013c-0.132967,-5.171922 2.405645,-10.024517 6.659568,-12.729852c4.253923,-2.705346 9.576873,-2.852426 13.963763,-0.385839l0.00001,0.000011z"/>
   <path stroke="null" fill-rule="nonzero" fill="#033FFF" id="Path" d="m7.717,81.41347c2.31111,-4.26129 6.72004,-6.96591 11.56598,-7.09507c4.84594,-0.12916 9.39268,2.33677 11.9275,6.4689c2.53483,4.13213 2.67264,9.30268 0.36152,13.56397l-12.93781,23.855l-23.855,-12.93781c-4.26129,-2.31111 -6.96591,-6.72004 -7.09507,-11.56598c-0.12916,-4.84594 2.33677,-9.39268 6.4689,-11.9275c4.13213,-2.53483 9.30268,-2.67264 13.56397,-0.36152l0.00001,0.00001z"/>
   <path stroke="null" fill-rule="nonzero" fill="#033FFF" id="Path" d="m80.69596,37.72688c4.80021,-0.69399 9.60583,1.22696 12.60501,5.03859c2.99918,3.81164 3.7358,8.93427 1.93213,13.43654c-1.80366,4.50227 -5.87331,7.69945 -10.67457,8.38613l-26.86126,3.86257l-3.86256,-26.86126c-1.06662,-7.41753 4.08181,-14.29529 11.49934,-15.36191c7.41753,-1.06662 14.29529,4.08181 15.36191,11.49934l0,0z"/>
   <rect stroke="null" height="13" width="25" y="330.08019" x="-226.50237" fill-rule="nonzero" fill="#FBBEBE" id="Rectangle"/>
   <rect stroke="null" height="13" width="25" y="330.08019" x="-226.50237" opacity="0.1" fill-rule="nonzero" fill="#000000" id="Rectangle"/>
   <circle stroke="null" r="32" cy="111.08019" cx="-272.50237" fill-rule="nonzero" fill="#2F2E41" id="Oval"/>
   <path stroke="null" fill-rule="nonzero" fill="#FBBEBE" id="Path" d="m-200.0024,323.58018c0,0 -10,-3 -12,-2c-2,1 7,9 7,9l5,-7z"/>
   <path stroke="null" opacity="0.1" fill-rule="nonzero" fill="#000000" id="Path" d="m-200.0024,323.58018c0,0 -10,-3 -12,-2c-2,1 7,9 7,9l5,-7z"/>
   <path stroke="null" fill-rule="nonzero" fill="#3F3D56" id="Path" d="m-269.0024,579.58018c0,0 23,3 27,3c4,0 15,4 9,9c-6,5 -44,12 -49,9c-5,-3 -12,-12 -7,-13c5,-1 20,-8 20,-8z"/>
   <polygon stroke="null" points="-310.0019836425781,616.5800170898438 -318.0019836425781,630.5800170898438 -308.0019836425781,635.5800170898438 -289.0019836425781,639.5800170898438 -279.0019836425781,626.5800170898438 -283.0019836425781,611.5800170898438 " fill-rule="nonzero" fill="#FBBEBE" id="Path"/>
   <path stroke="null" fill-rule="nonzero" fill="#2F2E41" id="Path" d="m-257.0024,513.58018c0,0 -13,55 -11,58c2,3 6,11 2,14c-4,3 -20,4 -20,4l5,-29l7,-35l17,-12z"/>
   <path stroke="null" fill-rule="nonzero" fill="#2F2E41" id="Path" d="m-293.0024,397.58018l13,59c0,0 2,29 -3,40c-5,11 -32,127 -32,127c0,0 28,1 34,-2c6,-3 16.11941,-72.26515 16.11941,-72.26515c0,0 32.88059,-65.73485 31.88059,-78.73485c-1,-13 4.9685,-79.037 -3.51575,-84.01852c-8.48425,-4.98152 -56.48425,11.01852 -56.48425,11.01852z"/>
   <path stroke="null" fill-rule="nonzero" fill="#3F3D56" id="Path" d="m-291.0024,634.58018l12,-12c0,0 32,16 37,17c5,1 16,9 5,12c-11,3 -52,1 -62,0c-10,-1 -30,-2 -27,-8c3,-6 8,-27 8,-27c0,0 2.76378,-3.82086 4.38189,1.08957c1.61811,4.91043 2.61811,11.91043 6.61811,11.91043c4,0 16,5 16,5z"/>
   <path stroke="null" fill-rule="nonzero" fill="#A0616A" id="Path" d="m-137.0024,380.58018l28,-2l19,10l-2,12l-8,2c0,0 -22,-9 -35,-6c-13,3 -2,-16 -2,-16z"/>
   <path stroke="null" fill-rule="nonzero" fill="#2F2E41" id="Path" d="m-104.0024,384.58018c0,0 11,12.03168 0,16.51584c0,0 2,3.48416 10,4.48416c8,1 19,8 22,8c3,0 16,-2 8,-13c-8,-11 -40,-35 -40,-35c0,0 -9,-4 -12,4c-3,8 -4.58292,9.82735 -4.58292,9.82735c0,0 14.58292,3.17265 16.58292,5.17265z"/>
   <path stroke="null" fill-rule="nonzero" fill="#A0616A" id="Path" d="m-188.0024,480.58018c0,0 9,34 9,36c0,2 12,-8 12,-8l2,-18c0,0 -8,-8 -8,-13c0,-5 -15,3 -15,3z"/>
   <path stroke="null" fill-rule="nonzero" fill="#2F2E41" id="Path" d="m-170.0024,504.58018c0,0 -7,9 -12,6l3,34c0,0 2,17 9,10c7,-7 14,-42 14,-42c0,0 10,-21 2,-24c-4.54094,-1.7395 -9.22551,-3.07795 -14,-4c0,0 0,21 -2,20z"/>
   <path stroke="null" fill-rule="nonzero" fill="#FF6584" id="Path" d="m-235.0024,390.58018l30,62c0,0 10,35 14,36c4,1 19,-6 21,-7c2,-1 -17,-40 -17,-47c0,-7 -23,-46 -23,-46l-25,2z"/>
   <path stroke="null" opacity="0.1" fill-rule="nonzero" fill="#000000" id="Path" d="m-235.0024,390.58018l30,62c0,0 10,35 14,36c4,1 19,-6 21,-7c2,-1 -17,-40 -17,-47c0,-7 -23,-46 -23,-46l-25,2z"/>
   <path stroke="null" fill-rule="nonzero" fill="#FF6584" id="Path" d="m-214.0024,282.58018c0,0 1,21 -3,35c-4,14 5,60 5,60c0,0 15,1 19,0c4,-1 58,-2 61,0c3,2 2,37 0,36c-2,-1 -54,-12 -79,-8c-25,4 -28,-2 -29,-4c-1,-2 -18,-56 -18,-56l-6,-26l-8,-28l5,-27l53,18z"/>
   <circle stroke="null" r="27" cy="125.08019" cx="-274.50237" fill-rule="nonzero" fill="#A0616A" id="Oval"/>
   <circle stroke="null" r="27" cy="188.58019" cx="-325.00237" fill-rule="nonzero" fill="#FBBEBE" id="Oval"/>
   <path stroke="null" fill-rule="nonzero" fill="#A0616A" id="Path" d="m-267.0024,143.58018c0,0 18,12 15,19c-3,7 -11,15 -11,15l-1,11l15,5l38,2c0,0 -2,-34 -14,-43c-12,-9 -26,-15 -28,-23c-2,-8 -14,14 -14,14z"/>
   <path stroke="null" fill-rule="nonzero" fill="#A0616A" id="Path" d="m-217.38619,168.24581c-6.54432,-12.22565 -24.95678,-10.74009 -28.77273,2.59157c-1.01235,3.26477 -0.59201,6.80577 1.15655,9.7428c7,12 12,21 12,21l22,-2c0,0 0.43257,-18.60048 -6.38382,-31.33437z"/>
   <path stroke="null" fill-rule="nonzero" fill="#2F2E41" id="Path" d="m-259.71602,173.994c0,0 -26.28638,16.58618 -24.28638,27.58618c2,11 4,30 4,37c0,7 7,29 17,33c10,4 10,-7 24,6c14,13 29,19 28,21c-1,2 4,-18 -4,-26c-8,-8 -17,-31 -9,-41c8,-10 15,-36 15,-36c0,0 -1,-6 -7,-5c-6,1 -43,-3 -45,-8c-1.18829,-2.88018 -0.69381,-6.1807 1.28638,-8.58618l0,0z"/>
   <path stroke="null" fill-rule="nonzero" fill="#2F2E41" id="Path" d="m-263.44725,182.47388c0,0 27.44485,-29.8937 31.44485,-28.8937c4,1 15.51919,12.83425 15.51919,12.83425l-15.51919,-10.83425l-31.44488,28.57874l0.00003,-1.68504z"/>
   <path stroke="null" fill-rule="nonzero" fill="#FBBEBE" id="Path" d="m-302.0024,193.58018c0,0 3.75627,40.44582 8.87813,44.22291c5.12186,3.77709 -38.87813,2.77709 -38.87813,2.77709c0,0 10,-31 4,-35c-6,-4 26,-12 26,-12z"/>
   <path stroke="null" fill-rule="nonzero" fill="#3F3D56" id="Path" d="m-292.0024,226.58018c0,0 -34,-9 -38,-4c-4,5 -12,48 -12,48c0,0 4,29 11,50c7,21 16,95 23,95c7,0 19,-11 22,-11c3,0 21,-9 32,-7c6.31857,1.24312 12.84683,0.89953 19,-1c0,0 -5,-42 -17,-53c-12,-11 -18,-87 -18,-87c0,0 -17,-32 -22,-30z"/>
   <path stroke="null" fill-rule="nonzero" fill="#FBBEBE" id="Path" d="m-240.0024,321.58018c0,0 11.37059,15.43307 22.6853,16.21654l6.3147,-0.21654c0,0 -10,26 -5,27c5,1 20,-19 15,-30c-5,-11 -20,-28 -20,-28l-19,15z"/>
   <path stroke="null" fill-rule="nonzero" fill="#FBBEBE" id="Path" d="m-200.0024,321.58018c0,0 -17,16 -10,23c7,7 16,0 16,0c0,0 7,-10 -6,-23z"/>
   <path stroke="null" opacity="0.1" fill-rule="nonzero" fill="#000000" id="Path" d="m-200.0024,321.58018c0,0 -17,16 -10,23c7,7 16,0 16,0c0,0 7,-10 -6,-23z"/>
   <circle stroke="null" r="32" cy="105.08019" cx="-265.50237" fill-rule="nonzero" fill="#2F2E41" id="Oval"/>
   <circle stroke="null" r="19" cy="78.08019" cx="-250.50237" fill-rule="nonzero" fill="#2F2E41" id="Oval"/>
   <path stroke="null" fill-rule="nonzero" fill="#2F2E41" id="Path" d="m-265.5024,72.08018c0.00096,-9.71859 7.33544,-17.86987 17,-18.89319c-0.66435,-0.07039 -1.33193,-0.10604 -2,-0.10681c-7.03006,-0.00436 -13.48798,3.87341 -16.78814,10.08072c-3.30016,6.20731 -2.90314,13.72956 1.03211,19.55499c3.93524,5.82542 10.76549,9.00184 17.75603,8.25748c-9.66456,-1.02332 -16.99905,-9.1746 -17,-18.89319z"/>
   <ellipse stroke="null" ry="19" rx="25.5" cy="118.08019" cx="-276.00237" fill-rule="nonzero" fill="#2F2E41" id="Oval"/>
   <path stroke="null" fill-rule="nonzero" fill="#2F2E41" id="Path" d="m-323.8764,178.55621c-0.35032,1.87684 -1.1833,3.763 -0.47965,5.6957c0.52139,1.43211 1.7908,2.56741 2.55311,3.92377c1.53462,2.73052 0.51782,6.22586 -2.12233,7.29572c-1.4845,-0.85712 -3.22764,-1.1521 -4.9115,-0.83115c-1.58805,0.35698 -2.65484,1.84951 -2.47848,3.4676c0.352,2.30917 3.04352,3.78843 4.41254,5.84839c0.84112,1.54326 1.40693,3.22127 1.67206,4.95876c0.67355,2.69657 1.859,5.374 1.996,8.07161c0.137,2.69761 -1.17541,5.5488 -3.85209,5.935c-2.25074,0.32471 -4.67047,-1.20085 -6.29822,-3.05284c-1.62775,-1.85199 -2.72607,-4.04868 -4.2172,-5.99843c-4.84525,-6.33544 -13.12635,-9.28788 -18.73431,-15.03718c-7.18577,-7.36687 -8.70777,-18.27964 -6.13684,-26.97819c1.07964,-3.65289 2.86588,-7.14472 5.90146,-9.37355c3.18561,-2.339 7.43992,-3.08705 11.00748,-4.906c3.81511,-1.94511 6.74181,-5.05667 10.116,-7.59641c3.37419,-2.53974 7.55424,-4.57614 12.15934,-3.89124c3.212,0.4777 6.25874,2.22624 9.44649,3.051c3.46523,0.94684 7.15324,0.64278 10.41661,-0.85878l-2.96158,3.17831c2.13107,0.84477 4.42666,1.19266 6.71233,1.01723c-0.92064,1.88679 -2.53486,3.34478 -4.50531,4.06928c1.59409,1.24726 3.598,1.8513 5.61584,1.69277c-2.19839,2.5114 -4.55962,5.12475 -7.9464,5.99975c-1.65893,0.4286 -3.46576,0.40787 -5.17823,0.68773c-3.65018,0.59653 -6.72335,2.52351 -9.70364,4.41464c-1.56494,0.993 -3.53334,2.11918 -3.5222,4.18051c0.00934,1.71658 1.39678,3.11788 1.03872,5.036z"/>
   <path stroke="null" fill-rule="nonzero" fill="#3F3D56" id="Path" d="m-312.0024,236.58018c0,0 -9,33 7,40c16,7 49,33 55,42c6,9 13,12 13,12c0,0 24,-20 19,-26c-5,-6 -25,-24 -25,-24c0,0 -51,-55 -69,-44z"/>
   <path stroke="null" fill-rule="nonzero" fill="#A0616A" id="Path" d="m-233.0024,237.58018c0,0 -36.739,-10.50232 -47.8695,-12.25116c-11.1305,-1.74884 -40.1305,1.25116 -34.1305,6.25116c6,5 41,9 41,9l42,16l-1,-19z"/>
   <path stroke="null" fill-rule="nonzero" fill="#2F2E41" id="Path" d="m-233.0024,196.58018c0,0 3,20 3,27c0,7 5,13 1,13c-4,0 -7,-4 -7,0c0,4 -6,28 0,28c6,0 21,-4 24,-4c3,0 13,-2 12,-13c-1,-11 -5,-23 -3,-25c2,-2 3,-12 1,-14c-2,-2 -7,-15 -7,-15l-24,3z"/>
   <g stroke="null" fill-rule="nonzero" fill="#033FFF" opacity="0.3" id="Group">
    <path stroke="null" id="Path" d="m-512.63262,6.12863c-3.84309,-0.46149 -7.33264,2.27984 -7.79413,6.12293c-0.46149,3.84309 2.27984,7.33264 6.12293,7.79413l13.91706,1.67121l1.6712,-13.91707c0.29853,-2.48604 -0.7519,-4.94251 -2.75561,-6.44406c-2.00372,-1.50156 -4.65629,-1.82009 -6.95853,-0.8356c-2.30225,0.98448 -3.90439,3.12242 -4.20292,5.60846l0,0z"/>
   </g>
   <g stroke="null" fill-rule="nonzero" fill="#033FFF" opacity="0.3" id="Group">
    <path stroke="null" id="Path" d="m-509.90312,3.25227c-3.37138,-1.89551 -7.64098,-0.70162 -9.54017,2.66769c-1.8992,3.36931 -0.70998,7.64021 2.65725,9.54309l12.21078,6.88291l6.88292,-12.21077c1.2328,-2.18149 1.20717,-4.85518 -0.06723,-7.01263c-1.2744,-2.15746 -3.60366,-3.4704 -6.10925,-3.44364c-2.50559,0.02677 -4.80628,1.38917 -6.0343,3.57335l0,0z"/>
   </g>
   <g stroke="null" fill-rule="nonzero" fill="#033FFF" opacity="0.3" id="Group">
    <path stroke="null" id="Path" d="m71.36738,428.12863c-2.48604,-0.29853 -4.94251,0.7519 -6.44406,2.75561c-1.50156,2.00372 -1.82009,4.65629 -0.8356,6.95853c0.98448,2.30225 3.12242,3.90439 5.60846,4.20292l13.91706,1.67121l1.6712,-13.91707c0.29853,-2.48604 -0.7519,-4.94251 -2.75561,-6.44406c-2.00372,-1.50156 -4.65629,-1.82009 -6.95853,-0.8356c-2.30225,0.98448 -3.90439,3.12242 -4.20292,5.60846l0,0z"/>
   </g>
  </g>
 </g>
</svg>