<svg xmlns="http://www.w3.org/2000/svg" data-name="Layer 1" width="613" height="411" style=""><rect id="backgroundrect" width="100%" height="100%" x="0" y="0" fill="none" stroke="none" class="" style=""/><title>treasure</title><g class="currentLayer" style=""><title>Layer 1</title><ellipse cx="191.11611938476562" cy="325.0097961425781" rx="74.0339126586914" ry="54" fill="#3f3d56" id="svg_1" class=""/><path d="M83.93213391160384,312.0097961425781 S65.14165996407883,298.1997961425782 61.59649461066141,299.21979614257816 s5.370797460079193,-47.36 11.308675033450127,-41.46 s13.855047671198845,21.42 18.38071283340454,-0.5 s7.064720637202263,-33.72 12.57820277094841,-32.54 s13.148941465616225,-9.43 18.658765017986298,0 s9.38060264825821,21.06 16.990451910495757,20.56 S154.3378739128055,197.58979614257817 160.2647757420482,216.46979614257816 s13.035525442957878,36.15 18.60754487872124,29.87 s11.930633867383003,3.16 17.019720561504364,13.78 s13.997732344865799,5.9 17.389237280488015,-2.36 s5.941536154747009,-14.16 13.148941465616225,-13 s30.113783306479455,15.34 38.598033517599106,33 s-11.026964267492295,40.12 -20.360005357861517,40.12 s-11.026964267492295,7.08 -19.08681903898716,17.7 s-21.21977198123932,-5.9 -30.53817874610424,11.8 s-21.21977198123932,-9.44 -37.317530035972595,0 s-12.72454602599144,22.41 -22.057587116360665,13 s-5.937877573370933,-13 -19.511214478611947,-15.34 s-28.416201547980307,5.9 -29.68938786685467,-9.44 s-9.746460785865784,-18.88 -14.839206061363221,-23.6 S83.93213391160384,312.0097961425781 83.93213391160384,312.0097961425781 z" fill="#3f3d56" id="svg_2" class=""/><path d="M406.140043334961,184.72979614257815 l2,-1.28 l0.5900000000000003,-0.38000000000000017 a19.55,19.55 0 0 1 -2,-38.1 l-0.1,8.06 l4.43,-8.77 h0 a19.56,19.56 0 0 1 20.45,18.63 c0,0.38000000000000017 0,0.7400000000000003 0,1.11 a23.3,23.3 0 0 0 3.8600000000000003,-5.7 c1.8800000000000003,-4.19 1.9100000000000001,-8.92 1.77,-14.68 c-0.30000000000000016,-11.4 -0.79,-22.89 -1.4300000000000002,-34.35 a19.54,19.54 0 0 1 -17.37,-18.51 a17.38,17.38 0 0 1 0,-1.77 c0,-0.15000000000000008 0,-0.30000000000000016 0,-0.44000000000000017 c0,-0.5700000000000003 0.09000000000000007,-1.13 0.18000000000000008,-1.6900000000000006 a2.56,2.56 0 0 1 0,-0.27 c0.07,-0.47000000000000014 0.17,-0.93 0.28,-1.3900000000000001 c0,-0.17 0.09000000000000007,-0.3400000000000003 0.13,-0.51 c0.14,-0.5 0.29000000000000015,-1 0.47000000000000014,-1.48 c0.06000000000000003,-0.1600000000000001 0.12000000000000002,-0.31000000000000016 0.19000000000000009,-0.47000000000000014 c0.14,-0.36000000000000015 0.29000000000000015,-0.7100000000000003 0.45,-1.06 c0.08000000000000004,-0.18000000000000008 0.1600000000000001,-0.37000000000000016 0.25,-0.55 l0.07,-0.14 h0 a19.57,19.57 0 0 1 23,-9.92 l-0.13,10.49 l4.38,-8.66 a19.53,19.53 0 0 1 9.76,16 a19.17,19.17 0 0 1 -0.43000000000000016,5.05 h0 c0,0.14 -0.08000000000000004,0.27 -0.11000000000000004,0.41000000000000014 s-0.13,0.52 -0.2,0.77 s-0.19000000000000009,0.6500000000000004 -0.30000000000000016,1 s-0.1600000000000001,0.48000000000000015 -0.25,0.7200000000000003 s-0.29000000000000015,0.6800000000000006 -0.44000000000000017,1 c-0.09000000000000007,0.19000000000000009 -0.17,0.3900000000000002 -0.26,0.5900000000000003 c-0.25,0.5 -0.52,1 -0.81,1.48 c-0.1,0.17 -0.22000000000000008,0.3300000000000002 -0.3200000000000002,0.49000000000000016 c-0.21000000000000008,0.3200000000000002 -0.42000000000000015,0.6500000000000004 -0.6500000000000004,1 s-0.29000000000000015,0.38000000000000017 -0.44000000000000017,0.56 s-0.43000000000000016,0.54 -0.6600000000000005,0.8 s-0.3300000000000002,0.36000000000000015 -0.5,0.54 s-0.48000000000000015,0.5 -0.7400000000000003,0.7400000000000003 l-0.51,0.48000000000000015 l-0.8900000000000003,0.7400000000000003 l-0.46,0.36000000000000015 c-0.47000000000000014,0.3400000000000003 -0.9400000000000003,0.6600000000000005 -1.44,1 l-0.28,0.1600000000000001 a14.09,14.09 0 0 1 -1.27,0.6900000000000006 l-0.56,0.25 c-0.35000000000000014,0.1600000000000001 -0.7100000000000003,0.3200000000000002 -1.08,0.45 l-0.6400000000000003,0.23 c-0.36000000000000015,0.13 -0.7200000000000003,0.24000000000000007 -1.09,0.3400000000000003 l-0.6600000000000005,0.17 c-0.4,0.1 -0.81,0.18000000000000008 -1.22,0.25 h-0.08000000000000004 q0.4,7.26 0.7200000000000003,14.51 a19.54,19.54 0 0 1 27.14,-8.49 l-3.45,9.48 l7.11,-6.83 a19.49,19.49 0 0 1 6.32,13.5 a19.21,19.21 0 0 1 -0.5,5.39 a19.55,19.55 0 0 1 -36,5.33 c0,0.49000000000000016 0,1 0,1.47 c0.13,5.08 0.29000000000000015,11.4 -2.24,17 a34.54,34.54 0 0 1 -7.2,9.72 c-1.78,1.81 -3.62,3.56 -5.5,5.26 a19.66,19.66 0 0 1 -7.07,5.87 q-4.65,3.58 -9.620000000000001,6.71 L409.06004333496094,189.34979614257816 c-1.86,1.1600000000000001 -3.77,2.34 -5.6400000000000015,3.5700000000000003 l1,-0.08000000000000004 a19.56,19.56 0 0 1 19.25,12.73 l-12.22,10 l13.45,-3.12 a19.59,19.59 0 0 1 -28,17.62 c0.31000000000000016,0.37000000000000016 0.6100000000000003,0.7500000000000003 0.91,1.13 l1.78,2.22 c8,10.08 10.17,19.64 6.23,26.93 l-4.79,-2.59 c3.83,-7.1 -1.9300000000000002,-16.18 -5.71,-21 c-0.5700000000000003,-0.7300000000000003 -1.1600000000000001,-1.46 -1.75,-2.19 c-5.08,-6.3100000000000005 -10.84,-13.47 -10.7,-22.25 C382.9700433349609,199.07979614257818 395.8200433349609,191.11979614257814 406.140043334961,184.72979614257815 z" fill="#f1f1f1" id="svg_3" class=""/><path d="M309.4900433349609,171.3997961425781 l-3.07,-1.92 c-0.30000000000000016,-0.18000000000000008 -0.5900000000000003,-0.37000000000000016 -0.8800000000000003,-0.56 a29.29,29.29 0 0 0 3,-57.06 l0.15000000000000008,12.07 L302.06004333496094,110.79979614257809 h-0.08000000000000004 a29.29,29.29 0 0 0 -30.62,27.9 c0,0.56 0,1.11 0,1.6600000000000001 a35,35 0 0 1 -5.79,-8.55 c-2.81,-6.26 -2.8600000000000003,-13.35 -2.64,-22 c0.44000000000000017,-17.08 1.18,-34.29 2.14,-51.44 a29.27,29.27 0 0 0 26,-27.71 c0,-0.9 0,-1.78 0,-2.66 l0,-0.6600000000000005 c-0.06000000000000003,-0.8500000000000003 -0.14,-1.6900000000000006 -0.27,-2.52 c0,-0.14 0,-0.27 -0.07,-0.41000000000000014 c-0.12000000000000002,-0.7000000000000003 -0.27,-1.3900000000000001 -0.44000000000000017,-2.08 c-0.06000000000000003,-0.26 -0.12000000000000002,-0.51 -0.19000000000000009,-0.77 c-0.21000000000000008,-0.7500000000000003 -0.43000000000000016,-1.48 -0.7000000000000003,-2.21 c-0.08000000000000004,-0.24000000000000007 -0.18000000000000008,-0.47000000000000014 -0.28,-0.7100000000000003 c-0.21000000000000008,-0.54 -0.43000000000000016,-1.06 -0.6700000000000006,-1.58 c-0.13,-0.28 -0.25,-0.55 -0.38000000000000017,-0.8200000000000003 a2,2 0 0 1 -0.1,-0.21000000000000008 h0 a29.27,29.27 0 0 0 -24.75,-16 a29.61,29.61 0 0 0 -9.64,1.1600000000000001 l0.19000000000000009,15.71 l-6.55,-13 a29.11,29.11 0 0 0 -14,31.56 h0 c0,0.2 0.11000000000000004,0.4 0.1600000000000001,0.6100000000000003 c0.09000000000000007,0.3900000000000002 0.19000000000000009,0.77 0.29000000000000015,1.15 s0.30000000000000016,1 0.46,1.45 s0.24000000000000007,0.7200000000000003 0.38000000000000017,1.07 c0.19000000000000009,0.52 0.42000000000000015,1 0.6500000000000004,1.53 c0.13,0.30000000000000016 0.25,0.6000000000000003 0.3900000000000002,0.8900000000000003 c0.37000000000000016,0.7500000000000003 0.77,1.49 1.21,2.21 c0.15000000000000008,0.26 0.3200000000000002,0.5 0.48000000000000015,0.7400000000000003 c0.3200000000000002,0.49000000000000016 0.6300000000000003,1 1,1.44 c0.21000000000000008,0.29000000000000015 0.44000000000000017,0.56 0.6600000000000005,0.8400000000000003 s0.6500000000000004,0.81 1,1.2 l0.7400000000000003,0.81 q0.54,0.5700000000000003 1.11,1.11 l0.77,0.7100000000000003 c0.43000000000000016,0.38000000000000017 0.8800000000000003,0.7500000000000003 1.34,1.1 c0.23,0.18000000000000008 0.45,0.37000000000000016 0.6900000000000006,0.55 c0.6900000000000006,0.51 1.4,1 2.14,1.44 c0.14,0.09000000000000007 0.29000000000000015,0.1600000000000001 0.43000000000000016,0.24000000000000007 c0.6200000000000003,0.36000000000000015 1.25,0.7100000000000003 1.8900000000000001,1 l0.8500000000000003,0.38000000000000017 c0.53,0.24000000000000007 1.06,0.47000000000000014 1.61,0.6700000000000006 c0.3200000000000002,0.13 0.6400000000000003,0.24000000000000007 1,0.35000000000000014 c0.54,0.18000000000000008 1.09,0.35000000000000014 1.6400000000000001,0.5 l1,0.26 c0.6100000000000003,0.14 1.22,0.26 1.83,0.37000000000000016 l0.12000000000000002,0 q-0.6200000000000003,10.86 -1.08,21.72 a29.27,29.27 0 0 0 -40.65,-12.7 l5.18,14.18 l-10.65,-10.22 a29.13,29.13 0 0 0 -9.46,20.22 a28.75,28.75 0 0 0 0.7400000000000003,8.07 a29.27,29.27 0 0 0 53.85,8 c0,0.7400000000000003 0,1.48 -0.07,2.21 c-0.19000000000000009,7.61 -0.44000000000000017,17.07 3.35,25.52 c2.5700000000000003,5.73 6.71,10.37 10.79,14.54 q4,4.08 8.24,7.88 a29.31,29.31 0 0 0 10.57,8.8 q7,5.35 14.42,10 l3.1,1.92 c2.7800000000000002,1.73 5.6400000000000015,3.51 8.44,5.35 c-0.49000000000000016,0 -1,-0.1 -1.48,-0.12000000000000002 a29.28,29.28 0 0 0 -28.83,19.06 l18.29,14.89 l-20.13,-4.66 a29.32,29.32 0 0 0 42,26.38 c-0.46,0.56 -0.91,1.12 -1.36,1.6900000000000006 c-0.9,1.12 -1.8,2.23 -2.67,3.33 c-11.91,15.09 -15.22,29.4 -9.33,40.32 l7.18,-3.87 c-5.74,-10.63 2.89,-24.23 8.55,-31.39 c0.8500000000000003,-1.09 1.73,-2.18 2.62,-3.2800000000000002 c7.61,-9.45 16.23,-20.17 16,-33.31 C344.18004333496094,192.8997961425781 324.9500433349609,181.00979614257812 309.4900433349609,171.3997961425781 z" fill="#f1f1f1" id="svg_4" class=""/><path d="M161.14004333496098,322.56979614257807 s-34.61,-9.16 -41.13,-8.49 s9.89,-31.34 20.82,-27.44 s25.52,14.18 33.85,-0.3300000000000002 s13,-22.32 23.17,-21.54 s24.21,-6.25 34.36,0 s17.27,13.94 31.29,13.61 s27.29,-31.57 38.22,-19.08 s24,23.94 34.26,19.78 s22,2.09 31.35,9.12 s25.77,3.91 32,-1.56 s10.94,-9.37 24.22,-8.59 s55.45,10.15 71.07,21.87 s-20.31,26.55 -37.49,26.55 s-20.31,4.69 -35.15,11.72 s-39.05,-3.91 -56.23,7.8100000000000005 s-39.05,-6.25 -68.73,0 s-23.43,14.84 -40.62,8.59 s-10.93,-8.59 -35.92,-10.15 s-52.33,3.9 -54.68,-6.25 s-18,-12.5 -27.33,-15.620000000000001 S161.14004333496098,322.56979614257807 161.14004333496098,322.56979614257807 z" fill="#3f3d56" id="svg_5" class=""/><polygon points="447.780029296875,214.58981323242188 434.38006591796875,255.65982055664062 433.800048828125,257.4497985839844 411.37005615234375,326.2098083496094 372.97003173828125,352.1598205566406 186.50003051757812,273.7497863769531 204.1700439453125,202.28982543945312 205.11004638671875,198.52981567382812 214.57003784179688,160.27978515625 214.59005737304688,160.18978881835938 271.99005126953125,153.00979614257812 447.780029296875,214.58981323242188 " fill="#f8ce6d" id="svg_6" class=""/><polygon points="447.780029296875,214.58981323242188 411.37005615234375,326.2098083496094 372.97003173828125,352.1598205566406 408.22003173828125,230.34982299804688 214.57003784179688,160.27978515625 214.59005737304688,160.18978881835938 271.99005126953125,153.00979614257812 447.780029296875,214.58981323242188 " opacity="0.1" id="svg_7" class=""/><polygon points="256.4100341796875,167.93978881835938 253.320068359375,166.05978393554688 284.300048828125,162.80978393554688 417.02001953125,209.72976684570312 413.280029296875,211.68978881835938 282.35003662109375,165.51980590820312 256.4100341796875,167.93978881835938 " opacity="0.1" id="svg_8" class=""/><polyline points="434.38006591796875,255.65982055664062 395.62005615234375,273.8898010253906 205.11004638671875,198.52981567382812 204.1700439453125,202.28982543945312 394.85003662109375,276.5697937011719 433.800048828125,257.4497985839844 " opacity="0.1" id="svg_9" class=""/><ellipse cx="116.1800537109375" cy="1280.7898254394531" rx="6.670000076293945" ry="7.199999809265137" transform="rotate(-72.75 -575.0299682617189,661.6397705078125) " fill="#3f3d56" id="svg_10" class=""/><ellipse cx="340.12005615234375" cy="1551.9096984863281" rx="6.670000076293945" ry="7.199999809265137" transform="rotate(-72.75 -519.009948730469,867.7397460937498) " fill="#3f3d56" id="svg_11" class=""/><ellipse cx="217.780029296875" cy="1664.1098937988281" rx="6.670000076293945" ry="7.199999809265137" transform="rotate(-72.75 -614.7999267578125,899.1798095703125) " fill="#3f3d56" id="svg_12" class=""/><ellipse cx="6.670013427734375" cy="1394.0598449707031" rx="6.670000076293945" ry="7.199999809265137" transform="rotate(-72.75 -663.9899902343751,696.8897705078124) " fill="#3f3d56" id="svg_13" class=""/><path d="M237.28004333496096,164.38979614257812 c-0.4,1.3 -3.6100000000000003,0 -7.69,-1.28 s-7.26,-2.68 -6.86,-4 s4.24,-2 8.32,-0.7300000000000003 S237.69004333496093,163.08979614257817 237.28004333496096,164.38979614257812 z" fill="#3f3d56" id="svg_14" class=""/><ellipse cx="193.330078125" cy="1262.4697570800781" rx="2.4600000381469727" ry="7.019999980926514" transform="rotate(-72.75 -527.7499389648439,670.8197631835936) " fill="#3f3d56" id="svg_15" class=""/><path d="M323.640043334961,196.00979614257812 c-0.4,1.3 -4.41,0.1 -8.3,-1.11 s-6.92,-2.56 -6.52,-3.8600000000000003 s4.09,-2 8,-0.8300000000000003 S324.06004333496094,194.68979614257807 323.640043334961,196.00979614257812 z" fill="#3f3d56" id="svg_16" class=""/><path d="M406.6000433349609,225.7997961425781 c-0.45,1.46 -4.71,0.19000000000000009 -8.84,-1.09 s-7.34,-2.75 -6.8900000000000015,-4.21 s4.4,-2.35 8.53,-1.07 S407.06004333496094,224.33979614257817 406.6000433349609,225.7997961425781 z" fill="#3f3d56" id="svg_17" class=""/><path d="M430.8600433349609,222.2997961425781 c-0.46,1.46 -4.71,0.19000000000000009 -8.84,-1.09 s-7.35,-2.75 -6.8900000000000015,-4.21 s4.4,-2.35 8.53,-1.07 S431.31004333496094,220.83979614257817 430.8600433349609,222.2997961425781 z" fill="#3f3d56" id="svg_18" class=""/><path d="M442.8200433349609,215.1697961425781 c-0.46,1.46 -4,0.42000000000000015 -7.38,-0.6400000000000003 s-6,-2.34 -5.59,-3.8 s3.8200000000000003,-2.54 7.23,-1.48 S443.270043334961,213.70979614257817 442.8200433349609,215.1697961425781 z" fill="#3f3d56" id="svg_19" class=""/><path d="M362.7100433349609,185.94979614257818 c-0.36000000000000015,1.1600000000000001 -4,0.09000000000000007 -7.46,-1 s-6.23,-2.31 -5.86,-3.47 s3.67,-1.83 7.17,-0.7500000000000003 S363.06004333496094,184.7797961425781 362.7100433349609,185.94979614257818 z" fill="#3f3d56" id="svg_20" class=""/><ellipse cx="241.78009033203125" cy="1287.6598205566406" rx="2.4600000381469727" ry="6.059999942779541" transform="rotate(-72.75 -507.24993896484386,696.8897705078124) " fill="#3f3d56" id="svg_21" class=""/><path d="M321.06004333496094,235.25979614257812 a6.32,6.32 0 0 0 -2.9,-7.36 a6.43,6.43 0 0 0 1.31,-2.33 a6.32,6.32 0 0 0 -7.24,-8.08 a6.32,6.32 0 0 0 -11.34,-5.25 a6.32,6.32 0 0 0 -9.74,3.25 c0,0.14 -0.07,0.27 -0.1,0.4 l-0.22000000000000008,0.11000000000000004 a6.32,6.32 0 1 0 -6.11,10.73 a5.65,5.65 0 0 0 1,0.22000000000000008 l0.08000000000000004,2.3200000000000003 L316.06004333496094,241.63979614257812 l-0.2,-2 A6.34,6.34 0 0 0 321.06004333496094,235.25979614257812 z" opacity="0.1" id="svg_22" class=""/><path d="M313.9900433349609,255.11979614257814 a6.33,6.33 0 0 1 -7.2,3.29 a6.18,6.18 0 0 1 -0.6700000000000006,2.58 a6.32,6.32 0 0 1 -8.49,2.81 a6.43,6.43 0 0 1 -2.33,-2 a6.32,6.32 0 0 1 -11.8,-4.09 a6.42,6.42 0 0 1 -2,-0.6200000000000003 a6.32,6.32 0 0 1 -2.81,-8.48 l0.2,-0.37000000000000016 l-0.08000000000000004,-0.23 a6.25,6.25 0 0 1 -2.63,-0.6700000000000006 A6.32,6.32 0 0 1 281.92004333496095,236.00979614257812 a6.59,6.59 0 0 1 0.8500000000000003,0.51 l1.6600000000000001,-1.61 l30.44,12.17 l-1.53,1.3 A6.32,6.32 0 0 1 313.9900433349609,255.11979614257814 z" opacity="0.1" id="svg_23" class=""/><path d="M295.41004333496096,221.6497961425781 L288.06004333496094,245.46979614257816 a7.16,7.16 0 0 0 4.33,8.83 h0 a7.15,7.15 0 0 0 9.32,-4.58 L309.06004333496094,225.88979614257812 a7.14,7.14 0 0 0 -5.08,-9 h0 A7.14,7.14 0 0 0 295.41004333496096,221.6497961425781 z" opacity="0.1" id="svg_24" class=""/><path d="M295.7300433349609,223.09979614257816 L289.06004333496094,244.45979614257817 a6.4,6.4 0 0 0 3.89,7.91 h0 a6.41,6.41 0 0 0 8.35,-4.11 l6.63,-21.37 a6.42,6.42 0 0 0 -4.5600000000000005,-8.12 h0 A6.42,6.42 0 0 0 295.7300433349609,223.09979614257816 z" fill="#3f3d56" id="svg_25" class=""/><path d="M208.78004333496096,333.49979614257813 s-34.61,-9.16 -41.13,-8.48 s9.89,-31.35 20.82,-27.44 s25.52,14.17 33.85,-0.3400000000000003 s13,-22.31 23.17,-21.53 s24.21,-6.25 34.36,0 s17.27,13.93 31.29,13.6 s27.29,-31.57 38.23,-19.07 s24,23.93 34.26,19.78 s22,2.09 31.34,9.12 s25.78,3.9 32,-1.56 s10.93,-9.38 24.21,-8.6 s55.45,10.16 71.07,21.87 s-20.3,26.56 -37.49,26.56 s-20.3,4.68 -35.14,11.71 s-39.06,-3.9 -56.24,7.8100000000000005 s-39.05,-6.24 -68.73,0 s-23.43,14.84 -40.61,8.6 s-10.94,-8.6 -35.93,-10.16 s-52.33,3.91 -54.67,-6.25 s-17.95,-12.49 -27.33,-15.620000000000001 S208.78004333496096,333.49979614257813 208.78004333496096,333.49979614257813 z" fill="#3f3d56" id="svg_26" class=""/><path d="M502.55004333496095,307.1797961425781 c3,-5.51 -0.4,-12.27 -4.28,-17.18 s-8.620000000000001,-10 -8.52,-16.29 c0.15000000000000008,-9 9.7,-14.31 17.33,-19.09 a84,84 0 0 0 15.56,-12.51 a22.61,22.61 0 0 0 4.78,-6.4 c1.58,-3.52 1.54,-7.52 1.44,-11.37 q-0.49000000000000016,-19.26 -1.9100000000000001,-38.49 " fill="none" stroke="#3f3d56" stroke-miterlimit="10" stroke-width="4" id="svg_27" class=""/><path d="M541.4600433349609,185.1497961425781 a14,14 0 0 0 -7,-11.5 l-3.14,6.22 l0.1,-7.53 a14.19,14.19 0 0 0 -4.63,-0.56 a14,14 0 1 0 14.68,13.37 z" fill="#57b793" id="svg_28" class=""/><path d="M516.4300433349609,280.1397961425781 a14,14 0 1 1 0.6800000000000006,-11.3 L508.3400433349609,276.0097961425781 l9.65,-2.23 A14,14 0 0 1 516.4300433349609,280.1397961425781 z" fill="#57b793" id="svg_29" class=""/><path d="M509.500043334961,252.88979614257812 A14,14 0 0 1 505.06004333496094,225.35979614257815 l-0.07,5.78 l3.17,-6.29 h0 A14,14 0 0 1 522.8600433349609,238.20979614257817 a13.84,13.84 0 0 1 -0.6000000000000003,4.79 A14,14 0 0 1 509.500043334961,252.88979614257812 z" fill="#57b793" id="svg_30" class=""/><path d="M543.5700433349609,230.21979614257816 a14,14 0 1 1 6.21,-26.27 l-2.48,6.8 l5.1,-4.9 a14,14 0 0 1 4.53,9.69 a13.79,13.79 0 0 1 -0.35000000000000014,3.87 A14,14 0 0 1 543.5700433349609,230.21979614257816 z" fill="#57b793" id="svg_31" class=""/><path d="M539.5700433349609,188.88979614257812 c-3.24,0.35000000000000014 -6.39,1.36 -9.64,1.56 s-6.82,-0.5700000000000003 -8.870000000000001,-3.1 c-1.11,-1.36 -1.6700000000000006,-3.08 -2.6,-4.57 a10,10 0 0 0 -3.54,-3.33 a14,14 0 1 0 26.24,9.32 Q540.3700433349609,188.7997961425781 539.5700433349609,188.88979614257812 z" opacity="0.1" id="svg_32" class=""/><path d="M543.5700433349609,230.21979614257816 a14.05,14.05 0 0 1 -13.35,-20 A10.37,10.37 0 0 1 533.0600433349609,213.00979614257812 c1,1.51 1.61,3.26 2.79,4.6400000000000015 c2.18,2.5700000000000003 5.91,3.41 9.3,3.26 s6.66,-1.12 10,-1.4300000000000002 c0.47000000000000014,0 1,-0.07 1.42,-0.08000000000000004 A14,14 0 0 1 543.5700433349609,230.21979614257816 z" opacity="0.1" id="svg_33" class=""/><path d="M509.500043334961,252.88979614257812 A14,14 0 0 1 496.06004333496094,233.12979614257813 a11.32,11.32 0 0 1 3,2.85 c1.09,1.54 1.77,3.3200000000000003 3,4.74 c2.37,2.63 6.35,3.56 9.94,3.48 s6.82,-0.93 10.27,-1.2 A14,14 0 0 1 509.500043334961,252.88979614257812 z" opacity="0.1" id="svg_34" class=""/><path d="M516.4300433349609,280.1397961425781 a14,14 0 0 1 -25.58,-11.45 a14,14 0 0 1 3.07,2.75 c1.34,1.62 2.22,3.47 3.7600000000000002,5 c2.87,2.8200000000000003 7.5,4 11.63,4.09 A60,60 0 0 0 516.4300433349609,280.1397961425781 z" opacity="0.1" id="svg_35" class=""/><path d="M481.380043334961,300.8297961425782 s11.08,-0.3400000000000003 14.42,-2.72 s17,-5.21 17.87,-1.4 s16.64,19 4.14,19.06 s-29.06,-1.94 -32.39,-4 S481.380043334961,300.8297961425782 481.380043334961,300.8297961425782 z" fill="#656380" id="svg_36" class=""/><path d="M518.0600433349609,314.4497961425782 c-12.51,0.1 -29.06,-2 -32.39,-4 c-2.54,-1.55 -3.55,-7.09 -3.89,-9.65 h-0.37000000000000016 s0.7000000000000003,8.94 4,11 s19.88,4.07 32.39,4 c3.6100000000000003,0 4.85,-1.31 4.79,-3.21 C522.0600433349609,313.70979614257817 520.7200433349609,314.4197961425781 518.0600433349609,314.4497961425782 z" opacity="0.2" id="svg_37" class=""/></g></svg>