<svg width="514" height="235" xmlns="http://www.w3.org/2000/svg">

 <title>treasure</title>
 <g class="currentLayer">
  <title>Layer 1</title>
  <g id="svg_65">
   <ellipse id="svg_10" fill="#3f3d56" transform="rotate(-72.75 -624.0299682617188,510.63977050781244) " ry="7.2" rx="6.67" cy="1129.789795" cx="67.180054"/>
   <ellipse id="svg_1" fill="#3f3d56" ry="54" rx="74.033913" cy="174.009796" cx="142.116119"/>
   <ellipse id="svg_3" fill="#3f3d56" ry="54" rx="74.033913" cy="174.009796" cx="142.116119"/>
   <path id="svg_4" fill="#3f3d56" d="m26.09715,167.49128s-19.8867,-13.81 -23.63869,-12.79s5.68413,-47.36 11.96842,-41.46s14.66335,21.42 19.45304,-0.5s7.47687,-33.72 13.312,-32.54s13.91605,-9.43 19.74731,0s9.92786,21.06 17.98167,20.56s15.68943,-47.69 21.9621,-28.81s13.79601,36.15 19.6931,29.87s12.62666,3.16 18.01264,13.78s14.81436,5.9 18.40372,-2.36s6.28816,-14.16 13.91604,-13s31.87061,15.34 40.84983,33s-11.67028,40.12 -21.5478,40.12s-11.67027,7.08 -20.20034,17.7s-22.45772,-5.9 -32.31976,11.8s-22.45772,-9.44 -39.49461,0s-13.46689,22.41 -23.34442,13s-6.28429,-13 -20.64949,-15.34s-30.07398,5.9 -31.42145,-9.44s-10.31506,-18.88 -15.70491,-23.6s13.0216,0.01 13.0216,0.01z"/>
   <path id="svg_38" fill="#3f3d56" d="m112.14004,171.5698s-34.61,-9.16 -41.13,-8.49s9.89,-31.34 20.82,-27.44s25.52,14.18 33.85,-0.33s13,-22.32 23.17,-21.54s24.21,-6.25 34.36,0s17.27,13.94 31.29,13.61s27.29,-31.57 38.22,-19.08s24,23.94 34.26,19.78s22,2.09 31.35,9.12s25.77,3.91 32,-1.56s10.94,-9.37 24.22,-8.59s55.45,10.15 71.07,21.87s-20.31,26.55 -37.49,26.55s-20.31,4.69 -35.15,11.72s-39.05,-3.91 -56.23,7.81s-39.05,-6.25 -68.73,0s-23.43,14.84 -40.62,8.59s-10.93,-8.59 -35.92,-10.15s-52.33,3.9 -54.68,-6.25s-18,-12.5 -27.33,-15.62s22.67,0 22.67,0z"/>
   <polygon id="svg_39" fill="#f8ce6d" points="398.780029296875,63.589813232421875 385.38006591796875,104.65982055664062 384.800048828125,106.44979858398438 362.37005615234375,175.20980834960938 323.97003173828125,201.15982055664062 137.50003051757812,122.74978637695312 155.1700439453125,51.289825439453125 156.11004638671875,47.529815673828125 165.57003784179688,9.27978515625 165.59005737304688,9.189788818359375 222.99005126953125,2.009796142578125 398.780029296875,63.589813232421875 "/>
   <polygon id="svg_40" opacity="0.1" points="398.780029296875,63.589813232421875 362.37005615234375,175.20980834960938 323.97003173828125,201.15982055664062 359.22003173828125,79.34982299804688 165.57003784179688,9.27978515625 165.59005737304688,9.189788818359375 222.99005126953125,2.009796142578125 398.780029296875,63.589813232421875 "/>
   <polygon id="svg_41" opacity="0.1" points="207.4100341796875,16.939788818359375 204.320068359375,15.059783935546875 235.300048828125,11.809783935546875 368.02001953125,58.729766845703125 364.280029296875,60.689788818359375 233.35003662109375,14.519805908203125 207.4100341796875,16.939788818359375 "/>
   <polyline id="svg_42" opacity="0.1" points="385.38006591796875,104.65982055664062 346.62005615234375,122.88980102539062 156.11004638671875,47.529815673828125 155.1700439453125,51.289825439453125 345.85003662109375,125.56979370117188 384.800048828125,106.44979858398438 "/>
   <path id="svg_43" fill="#3f3d56" d="m188.28004,13.3898c-0.4,1.3 -3.61,0 -7.69,-1.28s-7.26,-2.68 -6.86,-4s4.24,-2 8.32,-0.73s6.64,4.71 6.23,6.01z"/>
   <path id="svg_44" fill="#3f3d56" d="m274.64004,45.0098c-0.4,1.3 -4.41,0.1 -8.3,-1.11s-6.92,-2.56 -6.52,-3.86s4.09,-2 8,-0.83s7.24,4.48 6.82,5.8z"/>
   <path id="svg_45" fill="#3f3d56" d="m357.60004,74.7998c-0.45,1.46 -4.71,0.19 -8.84,-1.09s-7.34,-2.75 -6.89,-4.21s4.4,-2.35 8.53,-1.07s7.66,4.91 7.2,6.37z"/>
   <path id="svg_46" fill="#3f3d56" d="m381.86004,71.2998c-0.46,1.46 -4.71,0.19 -8.84,-1.09s-7.35,-2.75 -6.89,-4.21s4.4,-2.35 8.53,-1.07s7.65,4.91 7.2,6.37z"/>
   <path id="svg_47" fill="#3f3d56" d="m393.82004,64.1698c-0.46,1.46 -4,0.42 -7.38,-0.64s-6,-2.34 -5.59,-3.8s3.82,-2.54 7.23,-1.48s6.19,4.46 5.74,5.92z"/>
   <path id="svg_48" fill="#3f3d56" d="m313.71004,34.9498c-0.36,1.16 -4,0.09 -7.46,-1s-6.23,-2.31 -5.86,-3.47s3.67,-1.83 7.17,-0.75s6.5,4.05 6.15,5.22z"/>
   <path id="svg_49" opacity="0.2" d="m469.06004,163.4498c-12.51,0.1 -29.06,-2 -32.39,-4c-2.54,-1.55 -3.55,-7.09 -3.89,-9.65l-0.37,0s0.7,8.94 4,11s19.88,4.07 32.39,4c3.61,0 4.85,-1.31 4.79,-3.21c-0.53,1.12 -1.87,1.83 -4.53,1.86z"/>
   <path id="svg_50" opacity="0.1" d="m272.06004,84.2598a6.32,6.32 0 0 0 -2.9,-7.36a6.43,6.43 0 0 0 1.31,-2.33a6.32,6.32 0 0 0 -7.24,-8.08a6.32,6.32 0 0 0 -11.34,-5.25a6.32,6.32 0 0 0 -9.74,3.25c0,0.14 -0.07,0.27 -0.1,0.4l-0.22,0.11a6.32,6.32 0 1 0 -6.11,10.73a5.65,5.65 0 0 0 1,0.22l0.08,2.32l30.26,12.37l-0.2,-2a6.34,6.34 0 0 0 5.2,-4.38z"/>
   <path id="svg_51" opacity="0.1" d="m264.99004,104.1198a6.33,6.33 0 0 1 -7.2,3.29a6.18,6.18 0 0 1 -0.67,2.58a6.32,6.32 0 0 1 -8.49,2.81a6.43,6.43 0 0 1 -2.33,-2a6.32,6.32 0 0 1 -11.8,-4.09a6.42,6.42 0 0 1 -2,-0.62a6.32,6.32 0 0 1 -2.81,-8.48l0.2,-0.37l-0.08,-0.23a6.25,6.25 0 0 1 -2.63,-0.67a6.32,6.32 0 0 1 5.74,-11.33a6.59,6.59 0 0 1 0.85,0.51l1.66,-1.61l30.44,12.17l-1.53,1.3a6.32,6.32 0 0 1 0.65,6.74z"/>
   <path id="svg_52" opacity="0.1" d="m246.41004,70.6498l-7.35,23.82a7.16,7.16 0 0 0 4.33,8.83l0,0a7.15,7.15 0 0 0 9.32,-4.58l7.35,-23.83a7.14,7.14 0 0 0 -5.08,-9l0,0a7.14,7.14 0 0 0 -8.57,4.76z"/>
   <path id="svg_53" fill="#3f3d56" d="m246.73004,72.0998l-6.67,21.36a6.4,6.4 0 0 0 3.89,7.91l0,0a6.41,6.41 0 0 0 8.35,-4.11l6.63,-21.37a6.42,6.42 0 0 0 -4.56,-8.12l0,0a6.42,6.42 0 0 0 -7.64,4.33z"/>
   <path id="svg_54" fill="#3f3d56" d="m159.78004,182.4998s-34.61,-9.16 -41.13,-8.48s9.89,-31.35 20.82,-27.44s25.52,14.17 33.85,-0.34s13,-22.31 23.17,-21.53s24.21,-6.25 34.36,0s17.27,13.93 31.29,13.6s27.29,-31.57 38.23,-19.07s24,23.93 34.26,19.78s22,2.09 31.34,9.12s25.78,3.9 32,-1.56s10.93,-9.38 24.21,-8.6s55.45,10.16 71.07,21.87s-20.3,26.56 -37.49,26.56s-20.3,4.68 -35.14,11.71s-39.06,-3.9 -56.24,7.81s-39.05,-6.24 -68.73,0s-23.43,14.84 -40.61,8.6s-10.94,-8.6 -35.93,-10.16s-52.33,3.91 -54.67,-6.25s-17.95,-12.49 -27.33,-15.62s22.67,0 22.67,0z"/>
   <path id="svg_55" stroke-width="4" stroke-miterlimit="10" stroke="#3f3d56" fill="none" d="m453.55004,156.1798c3,-5.51 -0.4,-12.27 -4.28,-17.18s-8.62,-10 -8.52,-16.29c0.15,-9 9.7,-14.31 17.33,-19.09a84,84 0 0 0 15.56,-12.51a22.61,22.61 0 0 0 4.78,-6.4c1.58,-3.52 1.54,-7.52 1.44,-11.37q-0.49,-19.26 -1.91,-38.49"/>
   <path id="svg_56" fill="#57b793" d="m492.46004,34.1498a14,14 0 0 0 -7,-11.5l-3.14,6.22l0.1,-7.53a14.19,14.19 0 0 0 -4.63,-0.56a14,14 0 1 0 14.68,13.37l-0.01,0z"/>
   <path id="svg_57" fill="#57b793" d="m467.43004,129.1398a14,14 0 1 1 0.68,-11.3l-8.77,7.17l9.65,-2.23a14,14 0 0 1 -1.56,6.36z"/>
   <path id="svg_58" fill="#57b793" d="m460.50004,101.8898a14,14 0 0 1 -4.44,-27.53l-0.07,5.78l3.17,-6.29l0,0a14,14 0 0 1 14.7,13.36a13.84,13.84 0 0 1 -0.6,4.79a14,14 0 0 1 -12.76,9.89z"/>
   <path id="svg_59" fill="#57b793" d="m494.57004,79.2198a14,14 0 1 1 6.21,-26.27l-2.48,6.8l5.1,-4.9a14,14 0 0 1 4.53,9.69a13.79,13.79 0 0 1 -0.35,3.87a14,14 0 0 1 -13.01,10.81z"/>
   <path id="svg_60" opacity="0.1" d="m490.57004,37.8898c-3.24,0.35 -6.39,1.36 -9.64,1.56s-6.82,-0.57 -8.87,-3.1c-1.11,-1.36 -1.67,-3.08 -2.6,-4.57a10,10 0 0 0 -3.54,-3.33a14,14 0 1 0 26.24,9.32q-0.79,0.03 -1.59,0.12z"/>
   <path id="svg_61" opacity="0.1" d="m494.57004,79.2198a14.05,14.05 0 0 1 -13.35,-20a10.37,10.37 0 0 1 2.84,2.79c1,1.51 1.61,3.26 2.79,4.64c2.18,2.57 5.91,3.41 9.3,3.26s6.66,-1.12 10,-1.43c0.47,0 1,-0.07 1.42,-0.08a14,14 0 0 1 -13,10.82z"/>
   <path id="svg_62" opacity="0.1" d="m460.50004,101.8898a14,14 0 0 1 -13.44,-19.76a11.32,11.32 0 0 1 3,2.85c1.09,1.54 1.77,3.32 3,4.74c2.37,2.63 6.35,3.56 9.94,3.48s6.82,-0.93 10.27,-1.2a14,14 0 0 1 -12.77,9.89z"/>
   <path id="svg_63" opacity="0.1" d="m467.43004,129.1398a14,14 0 0 1 -25.58,-11.45a14,14 0 0 1 3.07,2.75c1.34,1.62 2.22,3.47 3.76,5c2.87,2.82 7.5,4 11.63,4.09a60,60 0 0 0 7.12,-0.39z"/>
   <path id="svg_64" fill="#656380" d="m432.38004,149.8298s11.08,-0.34 14.42,-2.72s17,-5.21 17.87,-1.4s16.64,19 4.14,19.06s-29.06,-1.94 -32.39,-4s-4.04,-10.94 -4.04,-10.94z"/>
   <path id="svg_2" fill="#3f3d56" d="m26.09715,167.49128s-19.8867,-13.81 -23.63869,-12.79s5.68413,-47.36 11.96842,-41.46s14.66335,21.42 19.45304,-0.5s7.47687,-33.72 13.312,-32.54s13.91605,-9.43 19.74731,0s9.92786,21.06 17.98167,20.56s15.68943,-47.69 21.9621,-28.81s13.79601,36.15 19.6931,29.87s12.62666,3.16 18.01264,13.78s14.81436,5.9 18.40372,-2.36s6.28816,-14.16 13.91604,-13s31.87061,15.34 40.84983,33s-11.67028,40.12 -21.5478,40.12s-11.67027,7.08 -20.20034,17.7s-22.45772,-5.9 -32.31976,11.8s-22.45772,-9.44 -39.49461,0s-13.46689,22.41 -23.34442,13s-6.28429,-13 -20.64949,-15.34s-30.07398,5.9 -31.42145,-9.44s-10.31506,-18.88 -15.70491,-23.6s13.0216,0.01 13.0216,0.01z"/>
   <path id="svg_5" fill="#3f3d56" d="m112.14004,171.5698s-34.61,-9.16 -41.13,-8.49s9.89,-31.34 20.82,-27.44s25.52,14.18 33.85,-0.33s13,-22.32 23.17,-21.54s24.21,-6.25 34.36,0s17.27,13.94 31.29,13.61s27.29,-31.57 38.22,-19.08s24,23.94 34.26,19.78s22,2.09 31.35,9.12s25.77,3.91 32,-1.56s10.94,-9.37 24.22,-8.59s55.45,10.15 71.07,21.87s-20.31,26.55 -37.49,26.55s-20.31,4.69 -35.15,11.72s-39.05,-3.91 -56.23,7.81s-39.05,-6.25 -68.73,0s-23.43,14.84 -40.62,8.59s-10.93,-8.59 -35.92,-10.15s-52.33,3.9 -54.68,-6.25s-18,-12.5 -27.33,-15.62s22.67,0 22.67,0z"/>
   <polygon id="svg_6" fill="#f8ce6d" points="398.780029296875,63.589813232421875 385.38006591796875,104.65982055664062 384.800048828125,106.44979858398438 362.37005615234375,175.20980834960938 323.97003173828125,201.15982055664062 137.50003051757812,122.74978637695312 155.1700439453125,51.289825439453125 156.11004638671875,47.529815673828125 165.57003784179688,9.27978515625 165.59005737304688,9.189788818359375 222.99005126953125,2.009796142578125 398.780029296875,63.589813232421875 "/>
   <polygon id="svg_7" opacity="0.1" points="398.780029296875,63.589813232421875 362.37005615234375,175.20980834960938 323.97003173828125,201.15982055664062 359.22003173828125,79.34982299804688 165.57003784179688,9.27978515625 165.59005737304688,9.189788818359375 222.99005126953125,2.009796142578125 398.780029296875,63.589813232421875 "/>
   <polygon id="svg_8" opacity="0.1" points="207.4100341796875,16.939788818359375 204.320068359375,15.059783935546875 235.300048828125,11.809783935546875 368.02001953125,58.729766845703125 364.280029296875,60.689788818359375 233.35003662109375,14.519805908203125 207.4100341796875,16.939788818359375 "/>
   <polyline id="svg_9" opacity="0.1" points="385.38006591796875,104.65982055664062 346.62005615234375,122.88980102539062 156.11004638671875,47.529815673828125 155.1700439453125,51.289825439453125 345.85003662109375,125.56979370117188 384.800048828125,106.44979858398438 "/>
   <ellipse id="svg_11" fill="#3f3d56" transform="rotate(-72.75 -568.009948730469,716.7397460937499) " ry="7.2" rx="6.67" cy="1400.909668" cx="291.120056"/>
   <ellipse id="svg_12" fill="#3f3d56" transform="rotate(-72.75 -663.7999267578125,748.1798095703124) " ry="7.2" rx="6.67" cy="1513.109863" cx="168.780029"/>
   <ellipse id="svg_13" fill="#3f3d56" transform="rotate(-72.75 -712.9899902343751,545.8897705078124) " ry="7.2" rx="6.67" cy="1243.059814" cx="-42.329987"/>
   <ellipse id="svg_15" fill="#3f3d56" transform="rotate(-72.75 -576.7499389648438,519.8197631835936) " ry="7.02" rx="2.46" cy="1111.469727" cx="144.330078"/>
   <path id="svg_14" fill="#3f3d56" d="m188.28004,13.3898c-0.4,1.3 -3.61,0 -7.69,-1.28s-7.26,-2.68 -6.86,-4s4.24,-2 8.32,-0.73s6.64,4.71 6.23,6.01z"/>
   <ellipse id="svg_21" fill="#3f3d56" transform="rotate(-72.75 -556.2499389648438,545.8897705078125) " ry="6.06" rx="2.46" cy="1136.65979" cx="192.78009"/>
   <path id="svg_16" fill="#3f3d56" d="m274.64004,45.0098c-0.4,1.3 -4.41,0.1 -8.3,-1.11s-6.92,-2.56 -6.52,-3.86s4.09,-2 8,-0.83s7.24,4.48 6.82,5.8z"/>
   <path id="svg_17" fill="#3f3d56" d="m357.60004,74.7998c-0.45,1.46 -4.71,0.19 -8.84,-1.09s-7.34,-2.75 -6.89,-4.21s4.4,-2.35 8.53,-1.07s7.66,4.91 7.2,6.37z"/>
   <path id="svg_18" fill="#3f3d56" d="m381.86004,71.2998c-0.46,1.46 -4.71,0.19 -8.84,-1.09s-7.35,-2.75 -6.89,-4.21s4.4,-2.35 8.53,-1.07s7.65,4.91 7.2,6.37z"/>
   <path id="svg_19" fill="#3f3d56" d="m393.82004,64.1698c-0.46,1.46 -4,0.42 -7.38,-0.64s-6,-2.34 -5.59,-3.8s3.82,-2.54 7.23,-1.48s6.19,4.46 5.74,5.92z"/>
   <path id="svg_20" fill="#3f3d56" d="m313.71004,34.9498c-0.36,1.16 -4,0.09 -7.46,-1s-6.23,-2.31 -5.86,-3.47s3.67,-1.83 7.17,-0.75s6.5,4.05 6.15,5.22z"/>
   <path id="svg_37" opacity="0.2" d="m469.06004,163.4498c-12.51,0.1 -29.06,-2 -32.39,-4c-2.54,-1.55 -3.55,-7.09 -3.89,-9.65l-0.37,0s0.7,8.94 4,11s19.88,4.07 32.39,4c3.61,0 4.85,-1.31 4.79,-3.21c-0.53,1.12 -1.87,1.83 -4.53,1.86z"/>
   <path id="svg_22" opacity="0.1" d="m272.06004,84.2598a6.32,6.32 0 0 0 -2.9,-7.36a6.43,6.43 0 0 0 1.31,-2.33a6.32,6.32 0 0 0 -7.24,-8.08a6.32,6.32 0 0 0 -11.34,-5.25a6.32,6.32 0 0 0 -9.74,3.25c0,0.14 -0.07,0.27 -0.1,0.4l-0.22,0.11a6.32,6.32 0 1 0 -6.11,10.73a5.65,5.65 0 0 0 1,0.22l0.08,2.32l30.26,12.37l-0.2,-2a6.34,6.34 0 0 0 5.2,-4.38z"/>
   <path id="svg_23" opacity="0.1" d="m264.99004,104.1198a6.33,6.33 0 0 1 -7.2,3.29a6.18,6.18 0 0 1 -0.67,2.58a6.32,6.32 0 0 1 -8.49,2.81a6.43,6.43 0 0 1 -2.33,-2a6.32,6.32 0 0 1 -11.8,-4.09a6.42,6.42 0 0 1 -2,-0.62a6.32,6.32 0 0 1 -2.81,-8.48l0.2,-0.37l-0.08,-0.23a6.25,6.25 0 0 1 -2.63,-0.67a6.32,6.32 0 0 1 5.74,-11.33a6.59,6.59 0 0 1 0.85,0.51l1.66,-1.61l30.44,12.17l-1.53,1.3a6.32,6.32 0 0 1 0.65,6.74z"/>
   <path id="svg_24" opacity="0.1" d="m246.41004,70.6498l-7.35,23.82a7.16,7.16 0 0 0 4.33,8.83l0,0a7.15,7.15 0 0 0 9.32,-4.58l7.35,-23.83a7.14,7.14 0 0 0 -5.08,-9l0,0a7.14,7.14 0 0 0 -8.57,4.76z"/>
   <path id="svg_25" fill="#3f3d56" d="m246.73004,72.0998l-6.67,21.36a6.4,6.4 0 0 0 3.89,7.91l0,0a6.41,6.41 0 0 0 8.35,-4.11l6.63,-21.37a6.42,6.42 0 0 0 -4.56,-8.12l0,0a6.42,6.42 0 0 0 -7.64,4.33z"/>
   <path id="svg_26" fill="#3f3d56" d="m159.78004,182.4998s-34.61,-9.16 -41.13,-8.48s9.89,-31.35 20.82,-27.44s25.52,14.17 33.85,-0.34s13,-22.31 23.17,-21.53s24.21,-6.25 34.36,0s17.27,13.93 31.29,13.6s27.29,-31.57 38.23,-19.07s24,23.93 34.26,19.78s22,2.09 31.34,9.12s25.78,3.9 32,-1.56s10.93,-9.38 24.21,-8.6s55.45,10.16 71.07,21.87s-20.3,26.56 -37.49,26.56s-20.3,4.68 -35.14,11.71s-39.06,-3.9 -56.24,7.81s-39.05,-6.24 -68.73,0s-23.43,14.84 -40.61,8.6s-10.94,-8.6 -35.93,-10.16s-52.33,3.91 -54.67,-6.25s-17.95,-12.49 -27.33,-15.62s22.67,0 22.67,0z"/>
   <path id="svg_27" stroke-width="4" stroke-miterlimit="10" stroke="#3f3d56" fill="none" d="m453.55004,156.1798c3,-5.51 -0.4,-12.27 -4.28,-17.18s-8.62,-10 -8.52,-16.29c0.15,-9 9.7,-14.31 17.33,-19.09a84,84 0 0 0 15.56,-12.51a22.61,22.61 0 0 0 4.78,-6.4c1.58,-3.52 1.54,-7.52 1.44,-11.37q-0.49,-19.26 -1.91,-38.49"/>
   <path id="svg_28" fill="#57b793" d="m492.46004,34.1498a14,14 0 0 0 -7,-11.5l-3.14,6.22l0.1,-7.53a14.19,14.19 0 0 0 -4.63,-0.56a14,14 0 1 0 14.68,13.37l-0.01,0z"/>
   <path id="svg_29" fill="#57b793" d="m467.43004,129.1398a14,14 0 1 1 0.68,-11.3l-8.77,7.17l9.65,-2.23a14,14 0 0 1 -1.56,6.36z"/>
   <path id="svg_30" fill="#57b793" d="m460.50004,101.8898a14,14 0 0 1 -4.44,-27.53l-0.07,5.78l3.17,-6.29l0,0a14,14 0 0 1 14.7,13.36a13.84,13.84 0 0 1 -0.6,4.79a14,14 0 0 1 -12.76,9.89z"/>
   <path id="svg_31" fill="#57b793" d="m494.57004,79.2198a14,14 0 1 1 6.21,-26.27l-2.48,6.8l5.1,-4.9a14,14 0 0 1 4.53,9.69a13.79,13.79 0 0 1 -0.35,3.87a14,14 0 0 1 -13.01,10.81z"/>
   <path id="svg_32" opacity="0.1" d="m490.57004,37.8898c-3.24,0.35 -6.39,1.36 -9.64,1.56s-6.82,-0.57 -8.87,-3.1c-1.11,-1.36 -1.67,-3.08 -2.6,-4.57a10,10 0 0 0 -3.54,-3.33a14,14 0 1 0 26.24,9.32q-0.79,0.03 -1.59,0.12z"/>
   <path id="svg_33" opacity="0.1" d="m494.57004,79.2198a14.05,14.05 0 0 1 -13.35,-20a10.37,10.37 0 0 1 2.84,2.79c1,1.51 1.61,3.26 2.79,4.64c2.18,2.57 5.91,3.41 9.3,3.26s6.66,-1.12 10,-1.43c0.47,0 1,-0.07 1.42,-0.08a14,14 0 0 1 -13,10.82z"/>
   <path id="svg_34" opacity="0.1" d="m460.50004,101.8898a14,14 0 0 1 -13.44,-19.76a11.32,11.32 0 0 1 3,2.85c1.09,1.54 1.77,3.32 3,4.74c2.37,2.63 6.35,3.56 9.94,3.48s6.82,-0.93 10.27,-1.2a14,14 0 0 1 -12.77,9.89z"/>
   <path id="svg_35" opacity="0.1" d="m467.43004,129.1398a14,14 0 0 1 -25.58,-11.45a14,14 0 0 1 3.07,2.75c1.34,1.62 2.22,3.47 3.76,5c2.87,2.82 7.5,4 11.63,4.09a60,60 0 0 0 7.12,-0.39z"/>
   <path id="svg_36" fill="#656380" d="m432.38004,149.8298s11.08,-0.34 14.42,-2.72s17,-5.21 17.87,-1.4s16.64,19 4.14,19.06s-29.06,-1.94 -32.39,-4s-4.04,-10.94 -4.04,-10.94z"/>
  </g>
 </g>
 <g>
  <title>Layer 2</title>
  <rect fill="none" height="382" width="557" id="backgroundrect"/>
 </g>
 <g>
  <title>background</title>
  <rect fill="none" id="canvas_background" height="237" width="516" y="-1" x="-1"/>
 </g>
</svg>