<?xml version="1.0" encoding="UTF-8"?>
<svg width="686px" height="663px" viewBox="0 0 686 663" version="1.1" xmlns="http://www.w3.org/2000/svg" xmlns:xlink="http://www.w3.org/1999/xlink">
    <!-- Generator: Sketch 53.2 (72643) - https://sketchapp.com -->
    <title>undraw_love_xfcv</title>
    <desc>Created with Sketch.</desc>
    <g id="Page-1" stroke="none" stroke-width="1" fill="none" fill-rule="evenodd">
        <g id="undraw_love_xfcv" transform="translate(-0.000000, -0.000000)">
            <path d="M685.2476,634.88017 C647.354545,652.84493 605.93342,662.136926 563.9976,662.08017 C557.9676,662.08017 551.980933,661.893503 546.0376,661.52017 C416.471363,653.400178 286.523837,653.400178 156.9576,661.52017 C151.0176,661.89017 145.030933,662.076837 138.9976,662.08017 C90.3304217,662.151288 42.4728205,649.628801 0.0776,625.73017 C64.2076,597.95017 189.4676,579.08017 333.4976,579.08017 C492.83766,579.08018 629.20765,602.17015 685.2476,634.88017 Z" id="Path" fill="#2F2E41" fill-rule="nonzero"></path>
            <path d="M487.87505,237.1573 C481.276112,231.475455 472.032667,230.011244 464.00078,233.37549 C452.12324,238.5556 446.95041,253.10709 447.78094,266.03843 C448.61147,278.96977 453.99978,291.09995 457.48944,303.5792 C462.17663,320.3409 463.39384,338.50778 457.90022,355.02276 C452.4066,371.53774 439.48036,386.09164 422.71351,390.76039 C407.15101,395.0938 390.64251,390.749 375.07982,386.41639" id="Path" stroke="#3F3D56"></path>
            <path d="M516.05087,211.31894 C516.333001,206.477567 514.009832,201.853685 509.957086,199.190278 C505.90434,196.52687 500.738237,196.228908 496.406152,198.408708 C492.074068,200.588509 489.234694,204.914634 488.95834,209.75634 L487.39575,236.84886 L514.48827,238.41146 C519.327883,238.690592 523.948784,236.366617 526.610325,232.314956 C529.271867,228.263294 529.569697,223.099489 527.391625,218.768696 C525.213554,214.437902 520.890483,211.598072 516.05087,211.31894 L516.05087,211.31894 Z" id="Path" fill="#033FFF" fill-rule="nonzero"></path>
            <path d="M486.91827,281.86177 C487.349767,274.380377 481.634698,267.965712 474.153305,267.534215 C466.671912,267.102718 460.257247,272.817787 459.82575,280.29918 L458.26315,307.3917 L485.35568,308.9543 C492.834009,309.380884 499.243387,303.666895 499.674692,296.188837 C500.105997,288.710779 494.396054,282.297795 486.91827,281.86177 L486.91827,281.86177 Z" id="Path" fill="#033FFF" fill-rule="nonzero"></path>
            <path d="M447.88093,206.29371 C444.165549,203.176199 439.068708,202.278835 434.511991,203.939937 C429.955275,205.601039 426.631666,209.567986 425.794215,214.345183 C424.956764,219.122379 426.73283,223.983309 430.45281,227.09533 L451.25443,244.52345 L468.6826,223.72183 C471.800111,220.006449 472.697475,214.909608 471.036373,210.352891 C469.375271,205.796175 465.408324,202.472566 460.631127,201.635115 C455.853931,200.797664 450.993001,202.57373 447.88098,206.29371 L447.88093,206.29371 Z" id="Path" fill="#033FFF" fill-rule="nonzero"></path>
            <path d="M609.9216,224.80567 C605.074596,217.571313 596.555154,213.697771 587.91731,214.80096 C575.08906,216.62996 566.22696,229.27783 563.58288,241.96318 C560.9388,254.64853 562.90123,267.77576 562.94063,280.73368 C562.99355,298.13833 559.32756,315.97306 549.63323,330.42797 C539.9389,344.88288 523.60289,355.46769 506.19823,355.50146 C490.0437,355.53282 475.28906,346.94754 461.44271,338.62596" id="Path" stroke="#3F3D56"></path>
            <path d="M643.9621,207.40623 C645.520303,202.81583 644.511193,197.742834 641.314891,194.09819 C638.11859,190.453546 633.220691,188.790963 628.466186,189.73672 C623.711682,190.682477 619.822893,194.09289 618.26469,198.68329 L609.54169,224.3807 L635.2391,233.10364 C642.335244,235.51243 650.040515,231.712579 652.449305,224.616435 C654.858095,217.520291 651.058244,209.81502 643.9621,207.40623 L643.9621,207.40623 Z" id="Path" fill="#033FFF" fill-rule="nonzero"></path>
            <path d="M597.09115,267.64009 C598.649364,263.04969 597.640264,257.976688 594.443967,254.332035 C591.247671,250.687382 586.349772,249.024788 581.595262,249.970535 C576.840752,250.916282 572.951954,254.32669 571.39374,258.91709 L562.6708,284.6145 L588.36821,293.3375 C595.464354,295.746273 603.169612,291.946409 605.578385,284.850265 C607.987158,277.754121 604.187294,270.048863 597.09115,267.64009 Z" id="Path" fill="#033FFF" fill-rule="nonzero"></path>
            <path d="M579.59379,184.40372 C576.842973,180.409423 572.169419,178.187038 567.335026,178.574389 C562.500632,178.96174 558.240563,181.899923 556.160836,186.281263 C554.081109,190.662602 554.497987,195.82083 557.25431,199.81133 L572.66191,222.15081 L595.0014,206.74321 C601.17028,202.488516 602.722034,194.03854 598.46734,187.86966 C594.212646,181.700781 585.76267,180.149026 579.59379,184.40372 L579.59379,184.40372 Z" id="Path" fill="#033FFF" fill-rule="nonzero"></path>
            <path d="M551.44383,43.90509 C560.045695,42.5496174 568.674834,46.1722103 573.73145,53.26164 C581.10118,63.9198 577.83632,79.01433 570.32096,89.5703 C562.8056,100.12627 551.8374,107.60109 542.2995,116.37255 C529.4885,128.15401 518.8875,142.95725 514.86144,159.88992 C510.83538,176.82259 514.16065,196.00192 525.95619,208.79992 C536.90448,220.67869 553.22666,225.67792 568.73842,230.18965" id="Path" stroke="#3F3D56"></path>
            <path d="M541.09654,7.10247 C543.407655,2.84118436 547.816583,0.136559412 552.662522,0.00740127095 C557.508461,-0.12175687 562.055199,2.34417399 564.590022,6.4763015 C567.124846,10.608429 567.262656,15.7789846 564.95154,20.04027 L552.01373,43.89527 L528.15873,30.95746 C523.897445,28.6463447 521.19282,24.2374173 521.063662,19.3914782 C520.934504,14.5455391 523.400434,9.9988017 527.532562,7.46397804 C531.664689,4.92915437 536.835245,4.79134448 541.09653,7.10246 L541.09654,7.10247 Z" id="Path" fill="#033FFF" fill-rule="nonzero"></path>
            <path d="M528.717,82.41347 C531.028115,78.1521844 535.437043,75.4475594 540.282982,75.3184013 C545.128921,75.1892431 549.675659,77.655174 552.210482,81.7873015 C554.745306,85.919429 554.883116,91.0899846 552.572,95.35127 L539.63419,119.20627 L515.77919,106.26846 C511.517905,103.957345 508.81328,99.5484173 508.684122,94.7024782 C508.554964,89.8565391 511.020894,85.3098017 515.153022,82.774978 C519.285149,80.2401544 524.455705,80.1023445 528.71699,82.41346 L528.717,82.41347 Z" id="Path" fill="#033FFF" fill-rule="nonzero"></path>
            <path d="M601.69596,38.72688 C606.496172,38.0328927 611.301787,39.9538386 614.300969,43.7654734 C617.300152,47.5771083 618.036771,52.6997406 616.233104,57.2020111 C614.429437,61.7042815 610.359793,64.9014634 605.55853,65.58814 L578.69727,69.45071 L574.83471,42.58945 C573.768091,35.1719206 578.916521,28.2941593 586.33405,27.22754 C593.751579,26.1609207 600.629341,31.3093506 601.69596,38.72688 L601.69596,38.72688 Z" id="Path" fill="#033FFF" fill-rule="nonzero"></path>
            <rect id="Rectangle" fill="#FBBEBE" fill-rule="nonzero" x="294.49763" y="331.08019" width="25" height="13"></rect>
            <rect id="Rectangle" fill="#000000" fill-rule="nonzero" opacity="0.1" x="294.49763" y="331.08019" width="25" height="13"></rect>
            <circle id="Oval" fill="#2F2E41" fill-rule="nonzero" cx="248.49763" cy="112.08019" r="32"></circle>
            <path d="M320.9976,324.58018 C320.9976,324.58018 310.9976,321.58018 308.9976,322.58018 C306.9976,323.58018 315.9976,331.58018 315.9976,331.58018 L320.9976,324.58018 Z" id="Path" fill="#FBBEBE" fill-rule="nonzero"></path>
            <path d="M320.9976,324.58018 C320.9976,324.58018 310.9976,321.58018 308.9976,322.58018 C306.9976,323.58018 315.9976,331.58018 315.9976,331.58018 L320.9976,324.58018 Z" id="Path" fill="#000000" fill-rule="nonzero" opacity="0.1"></path>
            <path d="M251.9976,580.58018 C251.9976,580.58018 274.9976,583.58018 278.9976,583.58018 C282.9976,583.58018 293.9976,587.58018 287.9976,592.58018 C281.9976,597.58018 243.9976,604.58018 238.9976,601.58018 C233.9976,598.58018 226.9976,589.58018 231.9976,588.58018 C236.9976,587.58018 251.9976,580.58018 251.9976,580.58018 Z" id="Path" fill="#3F3D56" fill-rule="nonzero"></path>
            <polygon id="Path" fill="#FBBEBE" fill-rule="nonzero" points="210.998 617.58 202.998 631.58 212.998 636.58 231.998 640.58 241.998 627.58 237.998 612.58"></polygon>
            <path d="M263.9976,514.58018 C263.9976,514.58018 250.9976,569.58018 252.9976,572.58018 C254.9976,575.58018 258.9976,583.58018 254.9976,586.58018 C250.9976,589.58018 234.9976,590.58018 234.9976,590.58018 L239.9976,561.58018 L246.9976,526.58018 L263.9976,514.58018 Z" id="Path" fill="#2F2E41" fill-rule="nonzero"></path>
            <path d="M227.9976,398.58018 L240.9976,457.58018 C240.9976,457.58018 242.9976,486.58018 237.9976,497.58018 C232.9976,508.58018 205.9976,624.58018 205.9976,624.58018 C205.9976,624.58018 233.9976,625.58018 239.9976,622.58018 C245.9976,619.58018 256.11701,550.31503 256.11701,550.31503 C256.11701,550.31503 288.9976,484.58018 287.9976,471.58018 C286.9976,458.58018 292.9661,392.54318 284.48185,387.56166 C275.9976,382.58014 227.9976,398.58018 227.9976,398.58018 Z" id="Path" fill="#2F2E41" fill-rule="nonzero"></path>
            <path d="M229.9976,635.58018 L241.9976,623.58018 C241.9976,623.58018 273.9976,639.58018 278.9976,640.58018 C283.9976,641.58018 294.9976,649.58018 283.9976,652.58018 C272.9976,655.58018 231.9976,653.58018 221.9976,652.58018 C211.9976,651.58018 191.9976,650.58018 194.9976,644.58018 C197.9976,638.58018 202.9976,617.58018 202.9976,617.58018 C202.9976,617.58018 205.76138,613.75932 207.37949,618.66975 C208.9976,623.58018 209.9976,630.58018 213.9976,630.58018 C217.9976,630.58018 229.9976,635.58018 229.9976,635.58018 Z" id="Path" fill="#3F3D56" fill-rule="nonzero"></path>
            <path d="M383.9976,381.58018 L411.9976,379.58018 L430.9976,389.58018 L428.9976,401.58018 L420.9976,403.58018 C420.9976,403.58018 398.9976,394.58018 385.9976,397.58018 C372.9976,400.58018 383.9976,381.58018 383.9976,381.58018 Z" id="Path" fill="#A0616A" fill-rule="nonzero"></path>
            <path d="M416.9976,385.58018 C416.9976,385.58018 427.9976,397.61186 416.9976,402.09602 C416.9976,402.09602 418.9976,405.58018 426.9976,406.58018 C434.9976,407.58018 445.9976,414.58018 448.9976,414.58018 C451.9976,414.58018 464.9976,412.58018 456.9976,401.58018 C448.9976,390.58018 416.9976,366.58018 416.9976,366.58018 C416.9976,366.58018 407.9976,362.58018 404.9976,370.58018 C401.9976,378.58018 400.41468,380.40753 400.41468,380.40753 C400.41468,380.40753 414.9976,383.58018 416.9976,385.58018 Z" id="Path" fill="#2F2E41" fill-rule="nonzero"></path>
            <path d="M332.9976,481.58018 C332.9976,481.58018 341.9976,515.58018 341.9976,517.58018 C341.9976,519.58018 353.9976,509.58018 353.9976,509.58018 L355.9976,491.58018 C355.9976,491.58018 347.9976,483.58018 347.9976,478.58018 C347.9976,473.58018 332.9976,481.58018 332.9976,481.58018 Z" id="Path" fill="#A0616A" fill-rule="nonzero"></path>
            <path d="M350.9976,505.58018 C350.9976,505.58018 343.9976,514.58018 338.9976,511.58018 L341.9976,545.58018 C341.9976,545.58018 343.9976,562.58018 350.9976,555.58018 C357.9976,548.58018 364.9976,513.58018 364.9976,513.58018 C364.9976,513.58018 374.9976,492.58018 366.9976,489.58018 C362.45666,487.840683 357.772095,486.502235 352.9976,485.58018 C352.9976,485.58018 352.9976,506.58018 350.9976,505.58018 Z" id="Path" fill="#2F2E41" fill-rule="nonzero"></path>
            <path d="M285.9976,391.58018 L315.9976,453.58018 C315.9976,453.58018 325.9976,488.58018 329.9976,489.58018 C333.9976,490.58018 348.9976,483.58018 350.9976,482.58018 C352.9976,481.58018 333.9976,442.58018 333.9976,435.58018 C333.9976,428.58018 310.9976,389.58018 310.9976,389.58018 L285.9976,391.58018 Z" id="Path" fill="#FF6584" fill-rule="nonzero"></path>
            <path d="M285.9976,391.58018 L315.9976,453.58018 C315.9976,453.58018 325.9976,488.58018 329.9976,489.58018 C333.9976,490.58018 348.9976,483.58018 350.9976,482.58018 C352.9976,481.58018 333.9976,442.58018 333.9976,435.58018 C333.9976,428.58018 310.9976,389.58018 310.9976,389.58018 L285.9976,391.58018 Z" id="Path" fill="#000000" fill-rule="nonzero" opacity="0.1"></path>
            <path d="M306.9976,283.58018 C306.9976,283.58018 307.9976,304.58018 303.9976,318.58018 C299.9976,332.58018 308.9976,378.58018 308.9976,378.58018 C308.9976,378.58018 323.9976,379.58018 327.9976,378.58018 C331.9976,377.58018 385.9976,376.58018 388.9976,378.58018 C391.9976,380.58018 390.9976,415.58018 388.9976,414.58018 C386.9976,413.58018 334.9976,402.58018 309.9976,406.58018 C284.9976,410.58018 281.9976,404.58018 280.9976,402.58018 C279.9976,400.58018 262.9976,346.58018 262.9976,346.58018 L256.9976,320.58018 L248.9976,292.58018 L253.9976,265.58018 L306.9976,283.58018 Z" id="Path" fill="#FF6584" fill-rule="nonzero"></path>
            <circle id="Oval" fill="#A0616A" fill-rule="nonzero" cx="246.49763" cy="126.08019" r="27"></circle>
            <circle id="Oval" fill="#FBBEBE" fill-rule="nonzero" cx="195.99763" cy="189.58019" r="27"></circle>
            <path d="M253.9976,144.58018 C253.9976,144.58018 271.9976,156.58018 268.9976,163.58018 C265.9976,170.58018 257.9976,178.58018 257.9976,178.58018 L256.9976,189.58018 L271.9976,194.58018 L309.9976,196.58018 C309.9976,196.58018 307.9976,162.58018 295.9976,153.58018 C283.9976,144.58018 269.9976,138.58018 267.9976,130.58018 C265.9976,122.58018 253.9976,144.58018 253.9976,144.58018 Z" id="Path" fill="#A0616A" fill-rule="nonzero"></path>
            <path d="M303.61381,169.24581 C297.06949,157.02016 278.65703,158.50572 274.84108,171.83738 C273.828725,175.102154 274.24907,178.643149 275.99763,181.58018 C282.99763,193.58018 287.99763,202.58018 287.99763,202.58018 L309.99763,200.58018 C309.99763,200.58018 310.4302,181.9797 303.61381,169.24581 Z" id="Path" fill="#A0616A" fill-rule="nonzero"></path>
            <path d="M261.28398,174.994 C261.28398,174.994 234.9976,191.58018 236.9976,202.58018 C238.9976,213.58018 240.9976,232.58018 240.9976,239.58018 C240.9976,246.58018 247.9976,268.58018 257.9976,272.58018 C267.9976,276.58018 267.9976,265.58018 281.9976,278.58018 C295.9976,291.58018 310.9976,297.58018 309.9976,299.58018 C308.9976,301.58018 313.9976,281.58018 305.9976,273.58018 C297.9976,265.58018 288.9976,242.58018 296.9976,232.58018 C304.9976,222.58018 311.9976,196.58018 311.9976,196.58018 C311.9976,196.58018 310.9976,190.58018 304.9976,191.58018 C298.9976,192.58018 261.9976,188.58018 259.9976,183.58018 C258.80931,180.700001 259.303794,177.399479 261.28398,174.994 L261.28398,174.994 Z" id="Path" fill="#2F2E41" fill-rule="nonzero"></path>
            <path d="M257.55275,183.47388 C257.55275,183.47388 284.9976,153.58018 288.9976,154.58018 C292.9976,155.58018 304.51679,167.41443 304.51679,167.41443 L288.9976,156.58018 L257.55272,185.15892 L257.55275,183.47388 Z" id="Path" fill="#2F2E41" fill-rule="nonzero"></path>
            <path d="M218.9976,194.58018 C218.9976,194.58018 222.75387,235.026 227.87573,238.80309 C232.99759,242.58018 188.9976,241.58018 188.9976,241.58018 C188.9976,241.58018 198.9976,210.58018 192.9976,206.58018 C186.9976,202.58018 218.9976,194.58018 218.9976,194.58018 Z" id="Path" fill="#FBBEBE" fill-rule="nonzero"></path>
            <path d="M228.9976,227.58018 C228.9976,227.58018 194.9976,218.58018 190.9976,223.58018 C186.9976,228.58018 178.9976,271.58018 178.9976,271.58018 C178.9976,271.58018 182.9976,300.58018 189.9976,321.58018 C196.9976,342.58018 205.9976,416.58018 212.9976,416.58018 C219.9976,416.58018 231.9976,405.58018 234.9976,405.58018 C237.9976,405.58018 255.9976,396.58018 266.9976,398.58018 C273.316172,399.823303 279.844431,399.479711 285.9976,397.58018 C285.9976,397.58018 280.9976,355.58018 268.9976,344.58018 C256.9976,333.58018 250.9976,257.58018 250.9976,257.58018 C250.9976,257.58018 233.9976,225.58018 228.9976,227.58018 Z" id="Path" fill="#3F3D56" fill-rule="nonzero"></path>
            <path d="M280.9976,322.58018 C280.9976,322.58018 292.36819,338.01325 303.6829,338.79672 L309.9976,338.58018 C309.9976,338.58018 299.9976,364.58018 304.9976,365.58018 C309.9976,366.58018 324.9976,346.58018 319.9976,335.58018 C314.9976,324.58018 299.9976,307.58018 299.9976,307.58018 L280.9976,322.58018 Z" id="Path" fill="#FBBEBE" fill-rule="nonzero"></path>
            <path d="M320.9976,322.58018 C320.9976,322.58018 303.9976,338.58018 310.9976,345.58018 C317.9976,352.58018 326.9976,345.58018 326.9976,345.58018 C326.9976,345.58018 333.9976,335.58018 320.9976,322.58018 Z" id="Path" fill="#FBBEBE" fill-rule="nonzero"></path>
            <path d="M320.9976,322.58018 C320.9976,322.58018 303.9976,338.58018 310.9976,345.58018 C317.9976,352.58018 326.9976,345.58018 326.9976,345.58018 C326.9976,345.58018 333.9976,335.58018 320.9976,322.58018 Z" id="Path" fill="#000000" fill-rule="nonzero" opacity="0.1"></path>
            <circle id="Oval" fill="#2F2E41" fill-rule="nonzero" cx="255.49763" cy="106.08019" r="32"></circle>
            <circle id="Oval" fill="#2F2E41" fill-rule="nonzero" cx="270.49763" cy="79.08019" r="19"></circle>
            <path d="M255.4976,73.08018 C255.498559,63.3615936 262.83304,55.2103148 272.4976,54.18699 C271.833247,54.1166035 271.165671,54.0809516 270.4976,54.08018 C263.467541,54.0758237 257.009617,57.9535923 253.709457,64.1609021 C250.409298,70.3682119 250.806321,77.8904615 254.741568,83.715887 C258.676815,89.5413126 265.507058,92.7177327 272.4976,91.97337 C262.833037,90.9500496 255.498554,82.7987682 255.4976,73.08018 Z" id="Path" fill="#2F2E41" fill-rule="nonzero"></path>
            <ellipse id="Oval" fill="#2F2E41" fill-rule="nonzero" cx="244.99763" cy="119.08019" rx="25.5" ry="19"></ellipse>
            <path d="M197.1236,179.55621 C196.77328,181.43305 195.9403,183.31921 196.64395,185.25191 C197.16534,186.68402 198.43475,187.81932 199.19706,189.17568 C200.73168,191.9062 199.71488,195.40154 197.07473,196.4714 C195.590225,195.614281 193.847094,195.319299 192.16323,195.64025 C190.575184,195.997226 189.50839,197.489759 189.68475,199.10785 C190.03675,201.41702 192.72827,202.89628 194.09729,204.95624 C194.938411,206.499504 195.504224,208.177514 195.76935,209.915 C196.4429,212.61157 197.62835,215.289 197.76535,217.98661 C197.90235,220.68422 196.58994,223.53541 193.91326,223.92161 C191.66252,224.24632 189.24279,222.72076 187.61504,220.86877 C185.98729,219.01678 184.88897,216.82009 183.39784,214.87034 C178.55259,208.5349 170.27149,205.58246 164.66353,199.83316 C157.47776,192.46629 155.95576,181.55352 158.52669,172.85497 C159.60633,169.20208 161.39257,165.71025 164.42815,163.48142 C167.61376,161.14242 171.86807,160.39437 175.43563,158.57542 C179.25074,156.63031 182.17744,153.51875 185.55163,150.97901 C188.92582,148.43927 193.10587,146.40287 197.71097,147.08777 C200.92297,147.56547 203.96971,149.31401 207.15746,150.13877 C210.622686,151.085607 214.310698,150.781555 217.57407,149.27999 L214.61249,152.4583 C216.743557,153.303068 219.039146,153.650957 221.32482,153.47553 C220.404175,155.362322 218.78996,156.820311 216.81951,157.54481 C218.413603,158.792071 220.417514,159.396105 222.43535,159.23758 C220.23696,161.74898 217.87573,164.36233 214.48895,165.23733 C212.83002,165.66593 211.02319,165.6452 209.31072,165.92506 C205.66054,166.52159 202.58737,168.44857 199.60708,170.3397 C198.04214,171.3327 196.07374,172.45888 196.08488,174.52021 C196.09422,176.23679 197.48166,177.63809 197.1236,179.55621 Z" id="Path" fill="#2F2E41" fill-rule="nonzero"></path>
            <path d="M208.9976,237.58018 C208.9976,237.58018 199.9976,270.58018 215.9976,277.58018 C231.9976,284.58018 264.9976,310.58018 270.9976,319.58018 C276.9976,328.58018 283.9976,331.58018 283.9976,331.58018 C283.9976,331.58018 307.9976,311.58018 302.9976,305.58018 C297.9976,299.58018 277.9976,281.58018 277.9976,281.58018 C277.9976,281.58018 226.9976,226.58018 208.9976,237.58018 Z" id="Path" fill="#3F3D56" fill-rule="nonzero"></path>
            <path d="M287.9976,238.58018 C287.9976,238.58018 251.2586,228.07786 240.1281,226.32902 C228.9976,224.58018 199.9976,227.58018 205.9976,232.58018 C211.9976,237.58018 246.9976,241.58018 246.9976,241.58018 L288.9976,257.58018 L287.9976,238.58018 Z" id="Path" fill="#A0616A" fill-rule="nonzero"></path>
            <path d="M287.9976,197.58018 C287.9976,197.58018 290.9976,217.58018 290.9976,224.58018 C290.9976,231.58018 295.9976,237.58018 291.9976,237.58018 C287.9976,237.58018 284.9976,233.58018 284.9976,237.58018 C284.9976,241.58018 278.9976,265.58018 284.9976,265.58018 C290.9976,265.58018 305.9976,261.58018 308.9976,261.58018 C311.9976,261.58018 321.9976,259.58018 320.9976,248.58018 C319.9976,237.58018 315.9976,225.58018 317.9976,223.58018 C319.9976,221.58018 320.9976,211.58018 318.9976,209.58018 C316.9976,207.58018 311.9976,194.58018 311.9976,194.58018 L287.9976,197.58018 Z" id="Path" fill="#2F2E41" fill-rule="nonzero"></path>
            <g id="Group" opacity="0.3" transform="translate(491.000000, 394.000000)" fill="#033FFF" fill-rule="nonzero">
                <path d="M8.36738,7.12863 C4.52429,6.66714086 1.03473914,9.40847 0.57325,13.25156 C0.111760863,17.09465 2.85309,20.5842009 6.69618,21.04569 L20.61324,22.7169 L22.28444,8.79983 C22.5829711,6.31378667 21.5325369,3.85732345 19.5288258,2.35576625 C17.5251147,0.854209045 14.8725381,0.535680124 12.5702958,1.52016625 C10.2680536,2.50465237 8.66591113,4.64258667 8.36738,7.12863 L8.36738,7.12863 Z" id="Path"></path>
            </g>
            <g id="Group" opacity="0.3" transform="translate(656.000000, 330.000000)" fill="#033FFF" fill-rule="nonzero">
                <path d="M11.09688,4.25227 C7.72549657,2.35675982 3.45590204,3.55065464 1.55670504,6.91996256 C-0.34249197,10.2892705 0.846731636,14.5601684 4.21396,16.46305 L16.42474,23.34596 L23.30766,11.13519 C24.5404597,8.9536994 24.5148253,6.28000882 23.2404251,4.12255644 C21.966025,1.96510406 19.6367657,0.652157181 17.131176,0.678921109 C14.6255862,0.705685037 12.3249041,2.0680875 11.09688,4.25227 L11.09688,4.25227 Z" id="Path"></path>
            </g>
            <g id="Group" opacity="0.3" transform="translate(584.000000, 422.000000)" fill="#033FFF" fill-rule="nonzero">
                <path d="M8.36738,7.12863 C5.88133667,6.83009887 3.42487345,7.88053306 1.92331625,9.88424417 C0.421759045,11.8879553 0.103230124,14.5405319 1.08771625,16.8427742 C2.07220237,19.1450164 4.21013667,20.7471589 6.69618,21.04569 L20.61324,22.7169 L22.28444,8.79983 C22.5829711,6.31378667 21.5325369,3.85732345 19.5288258,2.35576625 C17.5251147,0.854209045 14.8725381,0.535680124 12.5702958,1.52016625 C10.2680536,2.50465237 8.66591113,4.64258667 8.36738,7.12863 L8.36738,7.12863 Z" id="Path"></path>
            </g>
        </g>
    </g>
</svg>